G04 #@! TF.GenerationSoftware,KiCad,Pcbnew,8.0.1*
G04 #@! TF.CreationDate,2024-06-28T04:03:20+07:00*
G04 #@! TF.ProjectId,kicad-weight-scale-6-ch,6b696361-642d-4776-9569-6768742d7363,rev?*
G04 #@! TF.SameCoordinates,Original*
G04 #@! TF.FileFunction,Soldermask,Bot*
G04 #@! TF.FilePolarity,Negative*
%FSLAX46Y46*%
G04 Gerber Fmt 4.6, Leading zero omitted, Abs format (unit mm)*
G04 Created by KiCad (PCBNEW 8.0.1) date 2024-06-28 04:03:20*
%MOMM*%
%LPD*%
G01*
G04 APERTURE LIST*
G04 Aperture macros list*
%AMRoundRect*
0 Rectangle with rounded corners*
0 $1 Rounding radius*
0 $2 $3 $4 $5 $6 $7 $8 $9 X,Y pos of 4 corners*
0 Add a 4 corners polygon primitive as box body*
4,1,4,$2,$3,$4,$5,$6,$7,$8,$9,$2,$3,0*
0 Add four circle primitives for the rounded corners*
1,1,$1+$1,$2,$3*
1,1,$1+$1,$4,$5*
1,1,$1+$1,$6,$7*
1,1,$1+$1,$8,$9*
0 Add four rect primitives between the rounded corners*
20,1,$1+$1,$2,$3,$4,$5,0*
20,1,$1+$1,$4,$5,$6,$7,0*
20,1,$1+$1,$6,$7,$8,$9,0*
20,1,$1+$1,$8,$9,$2,$3,0*%
G04 Aperture macros list end*
%ADD10R,1.700000X1.700000*%
%ADD11O,1.700000X1.700000*%
%ADD12O,2.600000X1.600000*%
%ADD13R,1.524000X1.524000*%
%ADD14C,1.524000*%
%ADD15C,3.500000*%
%ADD16C,3.200000*%
%ADD17RoundRect,0.250000X0.725000X-0.600000X0.725000X0.600000X-0.725000X0.600000X-0.725000X-0.600000X0*%
%ADD18O,1.950000X1.700000*%
%ADD19C,3.100000*%
%ADD20R,3.500000X3.500000*%
%ADD21RoundRect,0.750000X0.750000X1.000000X-0.750000X1.000000X-0.750000X-1.000000X0.750000X-1.000000X0*%
%ADD22RoundRect,0.875000X0.875000X0.875000X-0.875000X0.875000X-0.875000X-0.875000X0.875000X-0.875000X0*%
G04 APERTURE END LIST*
D10*
X123395000Y-61700000D03*
D11*
X120855000Y-61700000D03*
D12*
X171900000Y-83110000D03*
X171900000Y-80570000D03*
X171900000Y-78030000D03*
X171900000Y-75490000D03*
X171900000Y-72950000D03*
X171900000Y-70410000D03*
X171900000Y-67870000D03*
X171900000Y-65330000D03*
X171900000Y-62790000D03*
X171900000Y-60250000D03*
X171900000Y-57710000D03*
X171900000Y-55170000D03*
X171900000Y-52630000D03*
X171900000Y-50090000D03*
X171900000Y-47550000D03*
X171900000Y-45010000D03*
X171900000Y-42470000D03*
X171900000Y-39930000D03*
X171900000Y-37390000D03*
X148740000Y-37390000D03*
X148740000Y-39930000D03*
X148740000Y-42470000D03*
X148740000Y-45010000D03*
X148740000Y-47550000D03*
X148740000Y-50090000D03*
X148740000Y-52630000D03*
X148740000Y-55170000D03*
X148740000Y-57710000D03*
X148740000Y-60250000D03*
X148740000Y-62790000D03*
X148740000Y-65330000D03*
X148740000Y-67870000D03*
X148740000Y-70410000D03*
X148740000Y-72950000D03*
X148740000Y-75490000D03*
X148740000Y-78030000D03*
X148740000Y-80570000D03*
X148740000Y-83110000D03*
D13*
X112977500Y-60500000D03*
D14*
X112977500Y-63000000D03*
X112977500Y-65000000D03*
X112977500Y-67500000D03*
D15*
X110267500Y-57430000D03*
X110267500Y-70570000D03*
D13*
X112960000Y-99500000D03*
D14*
X112960000Y-102000000D03*
X112960000Y-104000000D03*
X112960000Y-106500000D03*
D15*
X110250000Y-96430000D03*
X110250000Y-109570000D03*
D16*
X129000000Y-43650000D03*
D13*
X112960000Y-119050000D03*
D14*
X112960000Y-121550000D03*
X112960000Y-123550000D03*
X112960000Y-126050000D03*
D15*
X110250000Y-115980000D03*
X110250000Y-129120000D03*
D16*
X163900000Y-93550000D03*
D12*
X136000000Y-135700000D03*
X136000000Y-133160000D03*
X136000000Y-130620000D03*
X136000000Y-128080000D03*
X136000000Y-125540000D03*
X136000000Y-123000000D03*
X136000000Y-120460000D03*
X136000000Y-117920000D03*
X136000000Y-115380000D03*
X120680000Y-115380000D03*
X120720000Y-117920000D03*
X120720000Y-120460000D03*
X120720000Y-123000000D03*
X120720000Y-125540000D03*
X120720000Y-128080000D03*
X120720000Y-130620000D03*
X120720000Y-133160000D03*
X120720000Y-135700000D03*
X135880000Y-96820000D03*
X135880000Y-94280000D03*
X135880000Y-91740000D03*
X135880000Y-89200000D03*
X135880000Y-86660000D03*
X135880000Y-84120000D03*
X135880000Y-81580000D03*
X135880000Y-79040000D03*
X135880000Y-76500000D03*
X120560000Y-76500000D03*
X120600000Y-79040000D03*
X120600000Y-81580000D03*
X120600000Y-84120000D03*
X120600000Y-86660000D03*
X120600000Y-89200000D03*
X120600000Y-91740000D03*
X120600000Y-94280000D03*
X120600000Y-96820000D03*
D10*
X123395000Y-139700000D03*
D11*
X120855000Y-139700000D03*
D13*
X112960000Y-138550000D03*
D14*
X112960000Y-141050000D03*
X112960000Y-143050000D03*
X112960000Y-145550000D03*
D15*
X110250000Y-135480000D03*
X110250000Y-148620000D03*
D13*
X112960000Y-41020000D03*
D14*
X112960000Y-43520000D03*
X112960000Y-45520000D03*
X112960000Y-48020000D03*
D15*
X110250000Y-37950000D03*
X110250000Y-51090000D03*
D10*
X123120000Y-100700000D03*
D11*
X120580000Y-100700000D03*
D13*
X112977500Y-80000000D03*
D14*
X112977500Y-82500000D03*
X112977500Y-84500000D03*
X112977500Y-87000000D03*
D15*
X110267500Y-76930000D03*
X110267500Y-90070000D03*
D17*
X139050000Y-70650000D03*
D18*
X139050000Y-68150000D03*
X139050000Y-65650000D03*
X139050000Y-63150000D03*
D17*
X179725000Y-47400000D03*
D18*
X179725000Y-44900000D03*
X179725000Y-42400000D03*
X179725000Y-39900000D03*
D19*
X150220000Y-95000000D03*
X150220000Y-122800000D03*
X180720000Y-95000000D03*
D12*
X148780000Y-100340000D03*
X148780000Y-102880000D03*
X148780000Y-105420000D03*
X148780000Y-107960000D03*
X148780000Y-110500000D03*
X148780000Y-113040000D03*
X148780000Y-115580000D03*
X148780000Y-118120000D03*
D10*
X180450000Y-80675000D03*
D11*
X180450000Y-83215000D03*
D16*
X129000000Y-143400000D03*
D12*
X136000000Y-57660000D03*
X136000000Y-55120000D03*
X136000000Y-52580000D03*
X136000000Y-50040000D03*
X136000000Y-47500000D03*
X136000000Y-44960000D03*
X136000000Y-42420000D03*
X136000000Y-39880000D03*
X136000000Y-37340000D03*
X120680000Y-37340000D03*
X120720000Y-39880000D03*
X120720000Y-42420000D03*
X120720000Y-44960000D03*
X120720000Y-47500000D03*
X120720000Y-50040000D03*
X120720000Y-52580000D03*
X120720000Y-55120000D03*
X120720000Y-57660000D03*
D17*
X132200000Y-70650000D03*
D18*
X132200000Y-68150000D03*
X132200000Y-65650000D03*
X132200000Y-63150000D03*
D20*
X174000000Y-148007500D03*
D21*
X180000000Y-148007500D03*
D22*
X177000000Y-143307500D03*
M02*
