%TF.GenerationSoftware,KiCad,Pcbnew,8.0.1*%
%TF.CreationDate,2024-06-28T04:06:24+07:00*%
%TF.ProjectId,kicad-weight-scale-6-ch,6b696361-642d-4776-9569-6768742d7363,rev?*%
%TF.SameCoordinates,Original*%
%TF.FileFunction,Drillmap*%
%TF.FilePolarity,Positive*%
%FSLAX45Y45*%
G04 Gerber Fmt 4.5, Leading zero omitted, Abs format (unit mm)*
G04 Created by KiCad (PCBNEW 8.0.1) date 2024-06-28 04:06:24*
%MOMM*%
%LPD*%
G01*
G04 APERTURE LIST*
%ADD10C,0.200000*%
%ADD11C,0.100000*%
%ADD12C,0.230000*%
G04 APERTURE END LIST*
D10*
X10388000Y-3354000D02*
X18388000Y-3354000D01*
X18388000Y-15354000D01*
X10388000Y-15354000D01*
X10388000Y-3354000D01*
D11*
X14135000Y-9010000D02*
X14175000Y-9050000D01*
X14175000Y-9010000D02*
X14135000Y-9050000D01*
X14212500Y-4652500D02*
X14252500Y-4692500D01*
X14252500Y-4652500D02*
X14212500Y-4692500D01*
X14217500Y-5367500D02*
X14257500Y-5407500D01*
X14257500Y-5367500D02*
X14217500Y-5407500D01*
X11342000Y-4102000D02*
G75*
G02*
X11250000Y-4102000I-46000J0D01*
G01*
X11250000Y-4102000D02*
G75*
G02*
X11342000Y-4102000I46000J0D01*
G01*
X11342000Y-4352000D02*
G75*
G02*
X11250000Y-4352000I-46000J0D01*
G01*
X11250000Y-4352000D02*
G75*
G02*
X11342000Y-4352000I46000J0D01*
G01*
X11342000Y-4552000D02*
G75*
G02*
X11250000Y-4552000I-46000J0D01*
G01*
X11250000Y-4552000D02*
G75*
G02*
X11342000Y-4552000I46000J0D01*
G01*
X11342000Y-4802000D02*
G75*
G02*
X11250000Y-4802000I-46000J0D01*
G01*
X11250000Y-4802000D02*
G75*
G02*
X11342000Y-4802000I46000J0D01*
G01*
X11342000Y-9950000D02*
G75*
G02*
X11250000Y-9950000I-46000J0D01*
G01*
X11250000Y-9950000D02*
G75*
G02*
X11342000Y-9950000I46000J0D01*
G01*
X11342000Y-10200000D02*
G75*
G02*
X11250000Y-10200000I-46000J0D01*
G01*
X11250000Y-10200000D02*
G75*
G02*
X11342000Y-10200000I46000J0D01*
G01*
X11342000Y-10400000D02*
G75*
G02*
X11250000Y-10400000I-46000J0D01*
G01*
X11250000Y-10400000D02*
G75*
G02*
X11342000Y-10400000I46000J0D01*
G01*
X11342000Y-10650000D02*
G75*
G02*
X11250000Y-10650000I-46000J0D01*
G01*
X11250000Y-10650000D02*
G75*
G02*
X11342000Y-10650000I46000J0D01*
G01*
X11342000Y-11905000D02*
G75*
G02*
X11250000Y-11905000I-46000J0D01*
G01*
X11250000Y-11905000D02*
G75*
G02*
X11342000Y-11905000I46000J0D01*
G01*
X11342000Y-12155000D02*
G75*
G02*
X11250000Y-12155000I-46000J0D01*
G01*
X11250000Y-12155000D02*
G75*
G02*
X11342000Y-12155000I46000J0D01*
G01*
X11342000Y-12355000D02*
G75*
G02*
X11250000Y-12355000I-46000J0D01*
G01*
X11250000Y-12355000D02*
G75*
G02*
X11342000Y-12355000I46000J0D01*
G01*
X11342000Y-12605000D02*
G75*
G02*
X11250000Y-12605000I-46000J0D01*
G01*
X11250000Y-12605000D02*
G75*
G02*
X11342000Y-12605000I46000J0D01*
G01*
X11342000Y-13855000D02*
G75*
G02*
X11250000Y-13855000I-46000J0D01*
G01*
X11250000Y-13855000D02*
G75*
G02*
X11342000Y-13855000I46000J0D01*
G01*
X11342000Y-14105000D02*
G75*
G02*
X11250000Y-14105000I-46000J0D01*
G01*
X11250000Y-14105000D02*
G75*
G02*
X11342000Y-14105000I46000J0D01*
G01*
X11342000Y-14305000D02*
G75*
G02*
X11250000Y-14305000I-46000J0D01*
G01*
X11250000Y-14305000D02*
G75*
G02*
X11342000Y-14305000I46000J0D01*
G01*
X11342000Y-14555000D02*
G75*
G02*
X11250000Y-14555000I-46000J0D01*
G01*
X11250000Y-14555000D02*
G75*
G02*
X11342000Y-14555000I46000J0D01*
G01*
X11343750Y-6050000D02*
G75*
G02*
X11251750Y-6050000I-46000J0D01*
G01*
X11251750Y-6050000D02*
G75*
G02*
X11343750Y-6050000I46000J0D01*
G01*
X11343750Y-6300000D02*
G75*
G02*
X11251750Y-6300000I-46000J0D01*
G01*
X11251750Y-6300000D02*
G75*
G02*
X11343750Y-6300000I46000J0D01*
G01*
X11343750Y-6500000D02*
G75*
G02*
X11251750Y-6500000I-46000J0D01*
G01*
X11251750Y-6500000D02*
G75*
G02*
X11343750Y-6500000I46000J0D01*
G01*
X11343750Y-6750000D02*
G75*
G02*
X11251750Y-6750000I-46000J0D01*
G01*
X11251750Y-6750000D02*
G75*
G02*
X11343750Y-6750000I46000J0D01*
G01*
X11343750Y-8000000D02*
G75*
G02*
X11251750Y-8000000I-46000J0D01*
G01*
X11251750Y-8000000D02*
G75*
G02*
X11343750Y-8000000I46000J0D01*
G01*
X11343750Y-8250000D02*
G75*
G02*
X11251750Y-8250000I-46000J0D01*
G01*
X11251750Y-8250000D02*
G75*
G02*
X11343750Y-8250000I46000J0D01*
G01*
X11343750Y-8450000D02*
G75*
G02*
X11251750Y-8450000I-46000J0D01*
G01*
X11251750Y-8450000D02*
G75*
G02*
X11343750Y-8450000I46000J0D01*
G01*
X11343750Y-8700000D02*
G75*
G02*
X11251750Y-8700000I-46000J0D01*
G01*
X11251750Y-8700000D02*
G75*
G02*
X11343750Y-8700000I46000J0D01*
G01*
X13220000Y-6267500D02*
X13220000Y-6362500D01*
X13172500Y-6315000D02*
X13267500Y-6315000D01*
X13220000Y-6517500D02*
X13220000Y-6612500D01*
X13172500Y-6565000D02*
X13267500Y-6565000D01*
X13220000Y-6767500D02*
X13220000Y-6862500D01*
X13172500Y-6815000D02*
X13267500Y-6815000D01*
X13220000Y-7017500D02*
X13220000Y-7112500D01*
X13172500Y-7065000D02*
X13267500Y-7065000D01*
X13905000Y-6267500D02*
X13905000Y-6362500D01*
X13857500Y-6315000D02*
X13952500Y-6315000D01*
X13905000Y-6517500D02*
X13905000Y-6612500D01*
X13857500Y-6565000D02*
X13952500Y-6565000D01*
X13905000Y-6767500D02*
X13905000Y-6862500D01*
X13857500Y-6815000D02*
X13952500Y-6815000D01*
X13905000Y-7017500D02*
X13905000Y-7112500D01*
X13857500Y-7065000D02*
X13952500Y-7065000D01*
X17972500Y-3942500D02*
X17972500Y-4037500D01*
X17925000Y-3990000D02*
X18020000Y-3990000D01*
X17972500Y-4192500D02*
X17972500Y-4287500D01*
X17925000Y-4240000D02*
X18020000Y-4240000D01*
X17972500Y-4442500D02*
X17972500Y-4537500D01*
X17925000Y-4490000D02*
X18020000Y-4490000D01*
X17972500Y-4692500D02*
X17972500Y-4787500D01*
X17925000Y-4740000D02*
X18020000Y-4740000D01*
X12091356Y-7685356D02*
X12091356Y-7614644D01*
X12020644Y-7614644D01*
X12020644Y-7685356D01*
X12091356Y-7685356D01*
X12093356Y-10105356D02*
X12093356Y-10034644D01*
X12022644Y-10034644D01*
X12022644Y-10105356D01*
X12093356Y-10105356D01*
X12095356Y-7939356D02*
X12095356Y-7868644D01*
X12024644Y-7868644D01*
X12024644Y-7939356D01*
X12095356Y-7939356D01*
X12095356Y-8193356D02*
X12095356Y-8122644D01*
X12024644Y-8122644D01*
X12024644Y-8193356D01*
X12095356Y-8193356D01*
X12095356Y-8447356D02*
X12095356Y-8376644D01*
X12024644Y-8376644D01*
X12024644Y-8447356D01*
X12095356Y-8447356D01*
X12095356Y-8701356D02*
X12095356Y-8630644D01*
X12024644Y-8630644D01*
X12024644Y-8701356D01*
X12095356Y-8701356D01*
X12095356Y-8955356D02*
X12095356Y-8884644D01*
X12024644Y-8884644D01*
X12024644Y-8955356D01*
X12095356Y-8955356D01*
X12095356Y-9209356D02*
X12095356Y-9138644D01*
X12024644Y-9138644D01*
X12024644Y-9209356D01*
X12095356Y-9209356D01*
X12095356Y-9463356D02*
X12095356Y-9392644D01*
X12024644Y-9392644D01*
X12024644Y-9463356D01*
X12095356Y-9463356D01*
X12095356Y-9717356D02*
X12095356Y-9646644D01*
X12024644Y-9646644D01*
X12024644Y-9717356D01*
X12095356Y-9717356D01*
X12103356Y-3769356D02*
X12103356Y-3698644D01*
X12032644Y-3698644D01*
X12032644Y-3769356D01*
X12103356Y-3769356D01*
X12103356Y-11573356D02*
X12103356Y-11502644D01*
X12032644Y-11502644D01*
X12032644Y-11573356D01*
X12103356Y-11573356D01*
X12107356Y-4023356D02*
X12107356Y-3952644D01*
X12036644Y-3952644D01*
X12036644Y-4023356D01*
X12107356Y-4023356D01*
X12107356Y-4277356D02*
X12107356Y-4206644D01*
X12036644Y-4206644D01*
X12036644Y-4277356D01*
X12107356Y-4277356D01*
X12107356Y-4531356D02*
X12107356Y-4460644D01*
X12036644Y-4460644D01*
X12036644Y-4531356D01*
X12107356Y-4531356D01*
X12107356Y-4785356D02*
X12107356Y-4714644D01*
X12036644Y-4714644D01*
X12036644Y-4785356D01*
X12107356Y-4785356D01*
X12107356Y-5039356D02*
X12107356Y-4968644D01*
X12036644Y-4968644D01*
X12036644Y-5039356D01*
X12107356Y-5039356D01*
X12107356Y-5293356D02*
X12107356Y-5222644D01*
X12036644Y-5222644D01*
X12036644Y-5293356D01*
X12107356Y-5293356D01*
X12107356Y-5547356D02*
X12107356Y-5476644D01*
X12036644Y-5476644D01*
X12036644Y-5547356D01*
X12107356Y-5547356D01*
X12107356Y-5801356D02*
X12107356Y-5730644D01*
X12036644Y-5730644D01*
X12036644Y-5801356D01*
X12107356Y-5801356D01*
X12107356Y-11827356D02*
X12107356Y-11756644D01*
X12036644Y-11756644D01*
X12036644Y-11827356D01*
X12107356Y-11827356D01*
X12107356Y-12081356D02*
X12107356Y-12010644D01*
X12036644Y-12010644D01*
X12036644Y-12081356D01*
X12107356Y-12081356D01*
X12107356Y-12335356D02*
X12107356Y-12264644D01*
X12036644Y-12264644D01*
X12036644Y-12335356D01*
X12107356Y-12335356D01*
X12107356Y-12589356D02*
X12107356Y-12518644D01*
X12036644Y-12518644D01*
X12036644Y-12589356D01*
X12107356Y-12589356D01*
X12107356Y-12843356D02*
X12107356Y-12772644D01*
X12036644Y-12772644D01*
X12036644Y-12843356D01*
X12107356Y-12843356D01*
X12107356Y-13097356D02*
X12107356Y-13026644D01*
X12036644Y-13026644D01*
X12036644Y-13097356D01*
X12107356Y-13097356D01*
X12107356Y-13351356D02*
X12107356Y-13280644D01*
X12036644Y-13280644D01*
X12036644Y-13351356D01*
X12107356Y-13351356D01*
X12107356Y-13605356D02*
X12107356Y-13534644D01*
X12036644Y-13534644D01*
X12036644Y-13605356D01*
X12107356Y-13605356D01*
X12120856Y-6205356D02*
X12120856Y-6134644D01*
X12050144Y-6134644D01*
X12050144Y-6205356D01*
X12120856Y-6205356D01*
X12120856Y-14005356D02*
X12120856Y-13934644D01*
X12050144Y-13934644D01*
X12050144Y-14005356D01*
X12120856Y-14005356D01*
X12347356Y-10105356D02*
X12347356Y-10034644D01*
X12276644Y-10034644D01*
X12276644Y-10105356D01*
X12347356Y-10105356D01*
X12374856Y-6205356D02*
X12374856Y-6134644D01*
X12304144Y-6134644D01*
X12304144Y-6205356D01*
X12374856Y-6205356D01*
X12374856Y-14005356D02*
X12374856Y-13934644D01*
X12304144Y-13934644D01*
X12304144Y-14005356D01*
X12374856Y-14005356D01*
X13623356Y-7685356D02*
X13623356Y-7614644D01*
X13552644Y-7614644D01*
X13552644Y-7685356D01*
X13623356Y-7685356D01*
X13623356Y-7939356D02*
X13623356Y-7868644D01*
X13552644Y-7868644D01*
X13552644Y-7939356D01*
X13623356Y-7939356D01*
X13623356Y-8193356D02*
X13623356Y-8122644D01*
X13552644Y-8122644D01*
X13552644Y-8193356D01*
X13623356Y-8193356D01*
X13623356Y-8447356D02*
X13623356Y-8376644D01*
X13552644Y-8376644D01*
X13552644Y-8447356D01*
X13623356Y-8447356D01*
X13623356Y-8701356D02*
X13623356Y-8630644D01*
X13552644Y-8630644D01*
X13552644Y-8701356D01*
X13623356Y-8701356D01*
X13623356Y-8955356D02*
X13623356Y-8884644D01*
X13552644Y-8884644D01*
X13552644Y-8955356D01*
X13623356Y-8955356D01*
X13623356Y-9209356D02*
X13623356Y-9138644D01*
X13552644Y-9138644D01*
X13552644Y-9209356D01*
X13623356Y-9209356D01*
X13623356Y-9463356D02*
X13623356Y-9392644D01*
X13552644Y-9392644D01*
X13552644Y-9463356D01*
X13623356Y-9463356D01*
X13623356Y-9717356D02*
X13623356Y-9646644D01*
X13552644Y-9646644D01*
X13552644Y-9717356D01*
X13623356Y-9717356D01*
X13635356Y-3769356D02*
X13635356Y-3698644D01*
X13564644Y-3698644D01*
X13564644Y-3769356D01*
X13635356Y-3769356D01*
X13635356Y-4023356D02*
X13635356Y-3952644D01*
X13564644Y-3952644D01*
X13564644Y-4023356D01*
X13635356Y-4023356D01*
X13635356Y-4277356D02*
X13635356Y-4206644D01*
X13564644Y-4206644D01*
X13564644Y-4277356D01*
X13635356Y-4277356D01*
X13635356Y-4531356D02*
X13635356Y-4460644D01*
X13564644Y-4460644D01*
X13564644Y-4531356D01*
X13635356Y-4531356D01*
X13635356Y-4785356D02*
X13635356Y-4714644D01*
X13564644Y-4714644D01*
X13564644Y-4785356D01*
X13635356Y-4785356D01*
X13635356Y-5039356D02*
X13635356Y-4968644D01*
X13564644Y-4968644D01*
X13564644Y-5039356D01*
X13635356Y-5039356D01*
X13635356Y-5293356D02*
X13635356Y-5222644D01*
X13564644Y-5222644D01*
X13564644Y-5293356D01*
X13635356Y-5293356D01*
X13635356Y-5547356D02*
X13635356Y-5476644D01*
X13564644Y-5476644D01*
X13564644Y-5547356D01*
X13635356Y-5547356D01*
X13635356Y-5801356D02*
X13635356Y-5730644D01*
X13564644Y-5730644D01*
X13564644Y-5801356D01*
X13635356Y-5801356D01*
X13635356Y-11573356D02*
X13635356Y-11502644D01*
X13564644Y-11502644D01*
X13564644Y-11573356D01*
X13635356Y-11573356D01*
X13635356Y-11827356D02*
X13635356Y-11756644D01*
X13564644Y-11756644D01*
X13564644Y-11827356D01*
X13635356Y-11827356D01*
X13635356Y-12081356D02*
X13635356Y-12010644D01*
X13564644Y-12010644D01*
X13564644Y-12081356D01*
X13635356Y-12081356D01*
X13635356Y-12335356D02*
X13635356Y-12264644D01*
X13564644Y-12264644D01*
X13564644Y-12335356D01*
X13635356Y-12335356D01*
X13635356Y-12589356D02*
X13635356Y-12518644D01*
X13564644Y-12518644D01*
X13564644Y-12589356D01*
X13635356Y-12589356D01*
X13635356Y-12843356D02*
X13635356Y-12772644D01*
X13564644Y-12772644D01*
X13564644Y-12843356D01*
X13635356Y-12843356D01*
X13635356Y-13097356D02*
X13635356Y-13026644D01*
X13564644Y-13026644D01*
X13564644Y-13097356D01*
X13635356Y-13097356D01*
X13635356Y-13351356D02*
X13635356Y-13280644D01*
X13564644Y-13280644D01*
X13564644Y-13351356D01*
X13635356Y-13351356D01*
X13635356Y-13605356D02*
X13635356Y-13534644D01*
X13564644Y-13534644D01*
X13564644Y-13605356D01*
X13635356Y-13605356D01*
X14909356Y-3774356D02*
X14909356Y-3703644D01*
X14838644Y-3703644D01*
X14838644Y-3774356D01*
X14909356Y-3774356D01*
X14909356Y-4028356D02*
X14909356Y-3957644D01*
X14838644Y-3957644D01*
X14838644Y-4028356D01*
X14909356Y-4028356D01*
X14909356Y-4282356D02*
X14909356Y-4211644D01*
X14838644Y-4211644D01*
X14838644Y-4282356D01*
X14909356Y-4282356D01*
X14909356Y-4536356D02*
X14909356Y-4465644D01*
X14838644Y-4465644D01*
X14838644Y-4536356D01*
X14909356Y-4536356D01*
X14909356Y-4790356D02*
X14909356Y-4719644D01*
X14838644Y-4719644D01*
X14838644Y-4790356D01*
X14909356Y-4790356D01*
X14909356Y-5044356D02*
X14909356Y-4973644D01*
X14838644Y-4973644D01*
X14838644Y-5044356D01*
X14909356Y-5044356D01*
X14909356Y-5298356D02*
X14909356Y-5227644D01*
X14838644Y-5227644D01*
X14838644Y-5298356D01*
X14909356Y-5298356D01*
X14909356Y-5552356D02*
X14909356Y-5481644D01*
X14838644Y-5481644D01*
X14838644Y-5552356D01*
X14909356Y-5552356D01*
X14909356Y-5806356D02*
X14909356Y-5735644D01*
X14838644Y-5735644D01*
X14838644Y-5806356D01*
X14909356Y-5806356D01*
X14909356Y-6060356D02*
X14909356Y-5989644D01*
X14838644Y-5989644D01*
X14838644Y-6060356D01*
X14909356Y-6060356D01*
X14909356Y-6314356D02*
X14909356Y-6243644D01*
X14838644Y-6243644D01*
X14838644Y-6314356D01*
X14909356Y-6314356D01*
X14909356Y-6568356D02*
X14909356Y-6497644D01*
X14838644Y-6497644D01*
X14838644Y-6568356D01*
X14909356Y-6568356D01*
X14909356Y-6822356D02*
X14909356Y-6751644D01*
X14838644Y-6751644D01*
X14838644Y-6822356D01*
X14909356Y-6822356D01*
X14909356Y-7076356D02*
X14909356Y-7005644D01*
X14838644Y-7005644D01*
X14838644Y-7076356D01*
X14909356Y-7076356D01*
X14909356Y-7330356D02*
X14909356Y-7259644D01*
X14838644Y-7259644D01*
X14838644Y-7330356D01*
X14909356Y-7330356D01*
X14909356Y-7584356D02*
X14909356Y-7513644D01*
X14838644Y-7513644D01*
X14838644Y-7584356D01*
X14909356Y-7584356D01*
X14909356Y-7838356D02*
X14909356Y-7767644D01*
X14838644Y-7767644D01*
X14838644Y-7838356D01*
X14909356Y-7838356D01*
X14909356Y-8092356D02*
X14909356Y-8021644D01*
X14838644Y-8021644D01*
X14838644Y-8092356D01*
X14909356Y-8092356D01*
X14909356Y-8346356D02*
X14909356Y-8275644D01*
X14838644Y-8275644D01*
X14838644Y-8346356D01*
X14909356Y-8346356D01*
X14913356Y-10069356D02*
X14913356Y-9998644D01*
X14842644Y-9998644D01*
X14842644Y-10069356D01*
X14913356Y-10069356D01*
X14913356Y-10323356D02*
X14913356Y-10252644D01*
X14842644Y-10252644D01*
X14842644Y-10323356D01*
X14913356Y-10323356D01*
X14913356Y-10577356D02*
X14913356Y-10506644D01*
X14842644Y-10506644D01*
X14842644Y-10577356D01*
X14913356Y-10577356D01*
X14913356Y-10831356D02*
X14913356Y-10760644D01*
X14842644Y-10760644D01*
X14842644Y-10831356D01*
X14913356Y-10831356D01*
X14913356Y-11085356D02*
X14913356Y-11014644D01*
X14842644Y-11014644D01*
X14842644Y-11085356D01*
X14913356Y-11085356D01*
X14913356Y-11339356D02*
X14913356Y-11268644D01*
X14842644Y-11268644D01*
X14842644Y-11339356D01*
X14913356Y-11339356D01*
X14913356Y-11593356D02*
X14913356Y-11522644D01*
X14842644Y-11522644D01*
X14842644Y-11593356D01*
X14913356Y-11593356D01*
X14913356Y-11847356D02*
X14913356Y-11776644D01*
X14842644Y-11776644D01*
X14842644Y-11847356D01*
X14913356Y-11847356D01*
X17225356Y-3774356D02*
X17225356Y-3703644D01*
X17154644Y-3703644D01*
X17154644Y-3774356D01*
X17225356Y-3774356D01*
X17225356Y-4028356D02*
X17225356Y-3957644D01*
X17154644Y-3957644D01*
X17154644Y-4028356D01*
X17225356Y-4028356D01*
X17225356Y-4282356D02*
X17225356Y-4211644D01*
X17154644Y-4211644D01*
X17154644Y-4282356D01*
X17225356Y-4282356D01*
X17225356Y-4536356D02*
X17225356Y-4465644D01*
X17154644Y-4465644D01*
X17154644Y-4536356D01*
X17225356Y-4536356D01*
X17225356Y-4790356D02*
X17225356Y-4719644D01*
X17154644Y-4719644D01*
X17154644Y-4790356D01*
X17225356Y-4790356D01*
X17225356Y-5044356D02*
X17225356Y-4973644D01*
X17154644Y-4973644D01*
X17154644Y-5044356D01*
X17225356Y-5044356D01*
X17225356Y-5298356D02*
X17225356Y-5227644D01*
X17154644Y-5227644D01*
X17154644Y-5298356D01*
X17225356Y-5298356D01*
X17225356Y-5552356D02*
X17225356Y-5481644D01*
X17154644Y-5481644D01*
X17154644Y-5552356D01*
X17225356Y-5552356D01*
X17225356Y-5806356D02*
X17225356Y-5735644D01*
X17154644Y-5735644D01*
X17154644Y-5806356D01*
X17225356Y-5806356D01*
X17225356Y-6060356D02*
X17225356Y-5989644D01*
X17154644Y-5989644D01*
X17154644Y-6060356D01*
X17225356Y-6060356D01*
X17225356Y-6314356D02*
X17225356Y-6243644D01*
X17154644Y-6243644D01*
X17154644Y-6314356D01*
X17225356Y-6314356D01*
X17225356Y-6568356D02*
X17225356Y-6497644D01*
X17154644Y-6497644D01*
X17154644Y-6568356D01*
X17225356Y-6568356D01*
X17225356Y-6822356D02*
X17225356Y-6751644D01*
X17154644Y-6751644D01*
X17154644Y-6822356D01*
X17225356Y-6822356D01*
X17225356Y-7076356D02*
X17225356Y-7005644D01*
X17154644Y-7005644D01*
X17154644Y-7076356D01*
X17225356Y-7076356D01*
X17225356Y-7330356D02*
X17225356Y-7259644D01*
X17154644Y-7259644D01*
X17154644Y-7330356D01*
X17225356Y-7330356D01*
X17225356Y-7584356D02*
X17225356Y-7513644D01*
X17154644Y-7513644D01*
X17154644Y-7584356D01*
X17225356Y-7584356D01*
X17225356Y-7838356D02*
X17225356Y-7767644D01*
X17154644Y-7767644D01*
X17154644Y-7838356D01*
X17225356Y-7838356D01*
X17225356Y-8092356D02*
X17225356Y-8021644D01*
X17154644Y-8021644D01*
X17154644Y-8092356D01*
X17225356Y-8092356D01*
X17225356Y-8346356D02*
X17225356Y-8275644D01*
X17154644Y-8275644D01*
X17154644Y-8346356D01*
X17225356Y-8346356D01*
X17435356Y-14836106D02*
X17435356Y-14765394D01*
X17364644Y-14765394D01*
X17364644Y-14836106D01*
X17435356Y-14836106D01*
X17450000Y-14900750D02*
X17450000Y-14700750D01*
X17350000Y-14700750D02*
G75*
G02*
X17450000Y-14700750I50000J0D01*
G01*
X17350000Y-14700750D02*
X17350000Y-14900750D01*
X17350000Y-14900750D02*
G75*
G03*
X17450000Y-14900750I50000J0D01*
G01*
X17735356Y-14366106D02*
X17735356Y-14295394D01*
X17664644Y-14295394D01*
X17664644Y-14366106D01*
X17735356Y-14366106D01*
X17800000Y-14280750D02*
X17600000Y-14280750D01*
X17600000Y-14380750D02*
G75*
G02*
X17600000Y-14280750I0J50000D01*
G01*
X17600000Y-14380750D02*
X17800000Y-14380750D01*
X17800000Y-14380750D02*
G75*
G03*
X17800000Y-14280750I0J50000D01*
G01*
X18035356Y-14836106D02*
X18035356Y-14765394D01*
X17964644Y-14765394D01*
X17964644Y-14836106D01*
X18035356Y-14836106D01*
X18050000Y-14900750D02*
X18050000Y-14700750D01*
X17950000Y-14700750D02*
G75*
G02*
X18050000Y-14700750I50000J0D01*
G01*
X17950000Y-14700750D02*
X17950000Y-14900750D01*
X17950000Y-14900750D02*
G75*
G03*
X18050000Y-14900750I50000J0D01*
G01*
X18080356Y-8102856D02*
X18080356Y-8032144D01*
X18009644Y-8032144D01*
X18009644Y-8102856D01*
X18080356Y-8102856D01*
X18080356Y-8356856D02*
X18080356Y-8286144D01*
X18009644Y-8286144D01*
X18009644Y-8356856D01*
X18080356Y-8356856D01*
D12*
X11025000Y-3910000D02*
X11140000Y-3795000D01*
X11025000Y-3680000D01*
X10910000Y-3795000D01*
X11025000Y-3910000D01*
X11025000Y-5224000D02*
X11140000Y-5109000D01*
X11025000Y-4994000D01*
X10910000Y-5109000D01*
X11025000Y-5224000D01*
X11025000Y-9758000D02*
X11140000Y-9643000D01*
X11025000Y-9528000D01*
X10910000Y-9643000D01*
X11025000Y-9758000D01*
X11025000Y-11072000D02*
X11140000Y-10957000D01*
X11025000Y-10842000D01*
X10910000Y-10957000D01*
X11025000Y-11072000D01*
X11025000Y-11713000D02*
X11140000Y-11598000D01*
X11025000Y-11483000D01*
X10910000Y-11598000D01*
X11025000Y-11713000D01*
X11025000Y-13027000D02*
X11140000Y-12912000D01*
X11025000Y-12797000D01*
X10910000Y-12912000D01*
X11025000Y-13027000D01*
X11025000Y-13663000D02*
X11140000Y-13548000D01*
X11025000Y-13433000D01*
X10910000Y-13548000D01*
X11025000Y-13663000D01*
X11025000Y-14977000D02*
X11140000Y-14862000D01*
X11025000Y-14747000D01*
X10910000Y-14862000D01*
X11025000Y-14977000D01*
X11026750Y-5858000D02*
X11141750Y-5743000D01*
X11026750Y-5628000D01*
X10911750Y-5743000D01*
X11026750Y-5858000D01*
X11026750Y-7172000D02*
X11141750Y-7057000D01*
X11026750Y-6942000D01*
X10911750Y-7057000D01*
X11026750Y-7172000D01*
X11026750Y-7808000D02*
X11141750Y-7693000D01*
X11026750Y-7578000D01*
X10911750Y-7693000D01*
X11026750Y-7808000D01*
X11026750Y-9122000D02*
X11141750Y-9007000D01*
X11026750Y-8892000D01*
X10911750Y-9007000D01*
X11026750Y-9122000D01*
D10*
X10638777Y-15675484D02*
X10638777Y-15475484D01*
X10638777Y-15475484D02*
X10686396Y-15475484D01*
X10686396Y-15475484D02*
X10714967Y-15485008D01*
X10714967Y-15485008D02*
X10734015Y-15504055D01*
X10734015Y-15504055D02*
X10743539Y-15523103D01*
X10743539Y-15523103D02*
X10753063Y-15561198D01*
X10753063Y-15561198D02*
X10753063Y-15589769D01*
X10753063Y-15589769D02*
X10743539Y-15627865D01*
X10743539Y-15627865D02*
X10734015Y-15646912D01*
X10734015Y-15646912D02*
X10714967Y-15665960D01*
X10714967Y-15665960D02*
X10686396Y-15675484D01*
X10686396Y-15675484D02*
X10638777Y-15675484D01*
X10838777Y-15675484D02*
X10838777Y-15542150D01*
X10838777Y-15580246D02*
X10848301Y-15561198D01*
X10848301Y-15561198D02*
X10857824Y-15551674D01*
X10857824Y-15551674D02*
X10876872Y-15542150D01*
X10876872Y-15542150D02*
X10895920Y-15542150D01*
X10962586Y-15675484D02*
X10962586Y-15542150D01*
X10962586Y-15475484D02*
X10953063Y-15485008D01*
X10953063Y-15485008D02*
X10962586Y-15494531D01*
X10962586Y-15494531D02*
X10972110Y-15485008D01*
X10972110Y-15485008D02*
X10962586Y-15475484D01*
X10962586Y-15475484D02*
X10962586Y-15494531D01*
X11086396Y-15675484D02*
X11067348Y-15665960D01*
X11067348Y-15665960D02*
X11057824Y-15646912D01*
X11057824Y-15646912D02*
X11057824Y-15475484D01*
X11191158Y-15675484D02*
X11172110Y-15665960D01*
X11172110Y-15665960D02*
X11162586Y-15646912D01*
X11162586Y-15646912D02*
X11162586Y-15475484D01*
X11419729Y-15675484D02*
X11419729Y-15475484D01*
X11419729Y-15475484D02*
X11486396Y-15618341D01*
X11486396Y-15618341D02*
X11553062Y-15475484D01*
X11553062Y-15475484D02*
X11553062Y-15675484D01*
X11734015Y-15675484D02*
X11734015Y-15570722D01*
X11734015Y-15570722D02*
X11724491Y-15551674D01*
X11724491Y-15551674D02*
X11705443Y-15542150D01*
X11705443Y-15542150D02*
X11667348Y-15542150D01*
X11667348Y-15542150D02*
X11648301Y-15551674D01*
X11734015Y-15665960D02*
X11714967Y-15675484D01*
X11714967Y-15675484D02*
X11667348Y-15675484D01*
X11667348Y-15675484D02*
X11648301Y-15665960D01*
X11648301Y-15665960D02*
X11638777Y-15646912D01*
X11638777Y-15646912D02*
X11638777Y-15627865D01*
X11638777Y-15627865D02*
X11648301Y-15608817D01*
X11648301Y-15608817D02*
X11667348Y-15599293D01*
X11667348Y-15599293D02*
X11714967Y-15599293D01*
X11714967Y-15599293D02*
X11734015Y-15589769D01*
X11829253Y-15542150D02*
X11829253Y-15742150D01*
X11829253Y-15551674D02*
X11848301Y-15542150D01*
X11848301Y-15542150D02*
X11886396Y-15542150D01*
X11886396Y-15542150D02*
X11905443Y-15551674D01*
X11905443Y-15551674D02*
X11914967Y-15561198D01*
X11914967Y-15561198D02*
X11924491Y-15580246D01*
X11924491Y-15580246D02*
X11924491Y-15637388D01*
X11924491Y-15637388D02*
X11914967Y-15656436D01*
X11914967Y-15656436D02*
X11905443Y-15665960D01*
X11905443Y-15665960D02*
X11886396Y-15675484D01*
X11886396Y-15675484D02*
X11848301Y-15675484D01*
X11848301Y-15675484D02*
X11829253Y-15665960D01*
X12010205Y-15656436D02*
X12019729Y-15665960D01*
X12019729Y-15665960D02*
X12010205Y-15675484D01*
X12010205Y-15675484D02*
X12000682Y-15665960D01*
X12000682Y-15665960D02*
X12010205Y-15656436D01*
X12010205Y-15656436D02*
X12010205Y-15675484D01*
X12010205Y-15551674D02*
X12019729Y-15561198D01*
X12019729Y-15561198D02*
X12010205Y-15570722D01*
X12010205Y-15570722D02*
X12000682Y-15561198D01*
X12000682Y-15561198D02*
X12010205Y-15551674D01*
X12010205Y-15551674D02*
X12010205Y-15570722D01*
D11*
X10338000Y-15984000D02*
X10378000Y-16024000D01*
X10378000Y-15984000D02*
X10338000Y-16024000D01*
D10*
X10676872Y-15895484D02*
X10695920Y-15895484D01*
X10695920Y-15895484D02*
X10714967Y-15905008D01*
X10714967Y-15905008D02*
X10724491Y-15914531D01*
X10724491Y-15914531D02*
X10734015Y-15933579D01*
X10734015Y-15933579D02*
X10743539Y-15971674D01*
X10743539Y-15971674D02*
X10743539Y-16019293D01*
X10743539Y-16019293D02*
X10734015Y-16057388D01*
X10734015Y-16057388D02*
X10724491Y-16076436D01*
X10724491Y-16076436D02*
X10714967Y-16085960D01*
X10714967Y-16085960D02*
X10695920Y-16095484D01*
X10695920Y-16095484D02*
X10676872Y-16095484D01*
X10676872Y-16095484D02*
X10657824Y-16085960D01*
X10657824Y-16085960D02*
X10648301Y-16076436D01*
X10648301Y-16076436D02*
X10638777Y-16057388D01*
X10638777Y-16057388D02*
X10629253Y-16019293D01*
X10629253Y-16019293D02*
X10629253Y-15971674D01*
X10629253Y-15971674D02*
X10638777Y-15933579D01*
X10638777Y-15933579D02*
X10648301Y-15914531D01*
X10648301Y-15914531D02*
X10657824Y-15905008D01*
X10657824Y-15905008D02*
X10676872Y-15895484D01*
X10829253Y-16076436D02*
X10838777Y-16085960D01*
X10838777Y-16085960D02*
X10829253Y-16095484D01*
X10829253Y-16095484D02*
X10819729Y-16085960D01*
X10819729Y-16085960D02*
X10829253Y-16076436D01*
X10829253Y-16076436D02*
X10829253Y-16095484D01*
X11010205Y-15962150D02*
X11010205Y-16095484D01*
X10962586Y-15885960D02*
X10914967Y-16028817D01*
X10914967Y-16028817D02*
X11038777Y-16028817D01*
X11153063Y-15895484D02*
X11172110Y-15895484D01*
X11172110Y-15895484D02*
X11191158Y-15905008D01*
X11191158Y-15905008D02*
X11200682Y-15914531D01*
X11200682Y-15914531D02*
X11210205Y-15933579D01*
X11210205Y-15933579D02*
X11219729Y-15971674D01*
X11219729Y-15971674D02*
X11219729Y-16019293D01*
X11219729Y-16019293D02*
X11210205Y-16057388D01*
X11210205Y-16057388D02*
X11200682Y-16076436D01*
X11200682Y-16076436D02*
X11191158Y-16085960D01*
X11191158Y-16085960D02*
X11172110Y-16095484D01*
X11172110Y-16095484D02*
X11153063Y-16095484D01*
X11153063Y-16095484D02*
X11134015Y-16085960D01*
X11134015Y-16085960D02*
X11124491Y-16076436D01*
X11124491Y-16076436D02*
X11114967Y-16057388D01*
X11114967Y-16057388D02*
X11105444Y-16019293D01*
X11105444Y-16019293D02*
X11105444Y-15971674D01*
X11105444Y-15971674D02*
X11114967Y-15933579D01*
X11114967Y-15933579D02*
X11124491Y-15914531D01*
X11124491Y-15914531D02*
X11134015Y-15905008D01*
X11134015Y-15905008D02*
X11153063Y-15895484D01*
X11343539Y-15895484D02*
X11362586Y-15895484D01*
X11362586Y-15895484D02*
X11381634Y-15905008D01*
X11381634Y-15905008D02*
X11391158Y-15914531D01*
X11391158Y-15914531D02*
X11400682Y-15933579D01*
X11400682Y-15933579D02*
X11410205Y-15971674D01*
X11410205Y-15971674D02*
X11410205Y-16019293D01*
X11410205Y-16019293D02*
X11400682Y-16057388D01*
X11400682Y-16057388D02*
X11391158Y-16076436D01*
X11391158Y-16076436D02*
X11381634Y-16085960D01*
X11381634Y-16085960D02*
X11362586Y-16095484D01*
X11362586Y-16095484D02*
X11343539Y-16095484D01*
X11343539Y-16095484D02*
X11324491Y-16085960D01*
X11324491Y-16085960D02*
X11314967Y-16076436D01*
X11314967Y-16076436D02*
X11305443Y-16057388D01*
X11305443Y-16057388D02*
X11295920Y-16019293D01*
X11295920Y-16019293D02*
X11295920Y-15971674D01*
X11295920Y-15971674D02*
X11305443Y-15933579D01*
X11305443Y-15933579D02*
X11314967Y-15914531D01*
X11314967Y-15914531D02*
X11324491Y-15905008D01*
X11324491Y-15905008D02*
X11343539Y-15895484D01*
X11495920Y-16095484D02*
X11495920Y-15962150D01*
X11495920Y-15981198D02*
X11505443Y-15971674D01*
X11505443Y-15971674D02*
X11524491Y-15962150D01*
X11524491Y-15962150D02*
X11553063Y-15962150D01*
X11553063Y-15962150D02*
X11572110Y-15971674D01*
X11572110Y-15971674D02*
X11581634Y-15990722D01*
X11581634Y-15990722D02*
X11581634Y-16095484D01*
X11581634Y-15990722D02*
X11591158Y-15971674D01*
X11591158Y-15971674D02*
X11610205Y-15962150D01*
X11610205Y-15962150D02*
X11638777Y-15962150D01*
X11638777Y-15962150D02*
X11657824Y-15971674D01*
X11657824Y-15971674D02*
X11667348Y-15990722D01*
X11667348Y-15990722D02*
X11667348Y-16095484D01*
X11762586Y-16095484D02*
X11762586Y-15962150D01*
X11762586Y-15981198D02*
X11772110Y-15971674D01*
X11772110Y-15971674D02*
X11791158Y-15962150D01*
X11791158Y-15962150D02*
X11819729Y-15962150D01*
X11819729Y-15962150D02*
X11838777Y-15971674D01*
X11838777Y-15971674D02*
X11848301Y-15990722D01*
X11848301Y-15990722D02*
X11848301Y-16095484D01*
X11848301Y-15990722D02*
X11857824Y-15971674D01*
X11857824Y-15971674D02*
X11876872Y-15962150D01*
X11876872Y-15962150D02*
X11905443Y-15962150D01*
X11905443Y-15962150D02*
X11924491Y-15971674D01*
X11924491Y-15971674D02*
X11934015Y-15990722D01*
X11934015Y-15990722D02*
X11934015Y-16095484D01*
X12324491Y-15885960D02*
X12153063Y-16143103D01*
X12581634Y-15895484D02*
X12600682Y-15895484D01*
X12600682Y-15895484D02*
X12619729Y-15905008D01*
X12619729Y-15905008D02*
X12629253Y-15914531D01*
X12629253Y-15914531D02*
X12638777Y-15933579D01*
X12638777Y-15933579D02*
X12648301Y-15971674D01*
X12648301Y-15971674D02*
X12648301Y-16019293D01*
X12648301Y-16019293D02*
X12638777Y-16057388D01*
X12638777Y-16057388D02*
X12629253Y-16076436D01*
X12629253Y-16076436D02*
X12619729Y-16085960D01*
X12619729Y-16085960D02*
X12600682Y-16095484D01*
X12600682Y-16095484D02*
X12581634Y-16095484D01*
X12581634Y-16095484D02*
X12562586Y-16085960D01*
X12562586Y-16085960D02*
X12553063Y-16076436D01*
X12553063Y-16076436D02*
X12543539Y-16057388D01*
X12543539Y-16057388D02*
X12534015Y-16019293D01*
X12534015Y-16019293D02*
X12534015Y-15971674D01*
X12534015Y-15971674D02*
X12543539Y-15933579D01*
X12543539Y-15933579D02*
X12553063Y-15914531D01*
X12553063Y-15914531D02*
X12562586Y-15905008D01*
X12562586Y-15905008D02*
X12581634Y-15895484D01*
X12734015Y-16076436D02*
X12743539Y-16085960D01*
X12743539Y-16085960D02*
X12734015Y-16095484D01*
X12734015Y-16095484D02*
X12724491Y-16085960D01*
X12724491Y-16085960D02*
X12734015Y-16076436D01*
X12734015Y-16076436D02*
X12734015Y-16095484D01*
X12867348Y-15895484D02*
X12886396Y-15895484D01*
X12886396Y-15895484D02*
X12905444Y-15905008D01*
X12905444Y-15905008D02*
X12914967Y-15914531D01*
X12914967Y-15914531D02*
X12924491Y-15933579D01*
X12924491Y-15933579D02*
X12934015Y-15971674D01*
X12934015Y-15971674D02*
X12934015Y-16019293D01*
X12934015Y-16019293D02*
X12924491Y-16057388D01*
X12924491Y-16057388D02*
X12914967Y-16076436D01*
X12914967Y-16076436D02*
X12905444Y-16085960D01*
X12905444Y-16085960D02*
X12886396Y-16095484D01*
X12886396Y-16095484D02*
X12867348Y-16095484D01*
X12867348Y-16095484D02*
X12848301Y-16085960D01*
X12848301Y-16085960D02*
X12838777Y-16076436D01*
X12838777Y-16076436D02*
X12829253Y-16057388D01*
X12829253Y-16057388D02*
X12819729Y-16019293D01*
X12819729Y-16019293D02*
X12819729Y-15971674D01*
X12819729Y-15971674D02*
X12829253Y-15933579D01*
X12829253Y-15933579D02*
X12838777Y-15914531D01*
X12838777Y-15914531D02*
X12848301Y-15905008D01*
X12848301Y-15905008D02*
X12867348Y-15895484D01*
X13124491Y-16095484D02*
X13010206Y-16095484D01*
X13067348Y-16095484D02*
X13067348Y-15895484D01*
X13067348Y-15895484D02*
X13048301Y-15924055D01*
X13048301Y-15924055D02*
X13029253Y-15943103D01*
X13029253Y-15943103D02*
X13010206Y-15952627D01*
X13305444Y-15895484D02*
X13210206Y-15895484D01*
X13210206Y-15895484D02*
X13200682Y-15990722D01*
X13200682Y-15990722D02*
X13210206Y-15981198D01*
X13210206Y-15981198D02*
X13229253Y-15971674D01*
X13229253Y-15971674D02*
X13276872Y-15971674D01*
X13276872Y-15971674D02*
X13295920Y-15981198D01*
X13295920Y-15981198D02*
X13305444Y-15990722D01*
X13305444Y-15990722D02*
X13314967Y-16009769D01*
X13314967Y-16009769D02*
X13314967Y-16057388D01*
X13314967Y-16057388D02*
X13305444Y-16076436D01*
X13305444Y-16076436D02*
X13295920Y-16085960D01*
X13295920Y-16085960D02*
X13276872Y-16095484D01*
X13276872Y-16095484D02*
X13229253Y-16095484D01*
X13229253Y-16095484D02*
X13210206Y-16085960D01*
X13210206Y-16085960D02*
X13200682Y-16076436D01*
X13381634Y-15895484D02*
X13514967Y-15895484D01*
X13514967Y-15895484D02*
X13429253Y-16095484D01*
X13581634Y-15895484D02*
X13581634Y-15933579D01*
X13657825Y-15895484D02*
X13657825Y-15933579D01*
X13953063Y-16171674D02*
X13943539Y-16162150D01*
X13943539Y-16162150D02*
X13924491Y-16133579D01*
X13924491Y-16133579D02*
X13914968Y-16114531D01*
X13914968Y-16114531D02*
X13905444Y-16085960D01*
X13905444Y-16085960D02*
X13895920Y-16038341D01*
X13895920Y-16038341D02*
X13895920Y-16000246D01*
X13895920Y-16000246D02*
X13905444Y-15952627D01*
X13905444Y-15952627D02*
X13914968Y-15924055D01*
X13914968Y-15924055D02*
X13924491Y-15905008D01*
X13924491Y-15905008D02*
X13943539Y-15876436D01*
X13943539Y-15876436D02*
X13953063Y-15866912D01*
X14010206Y-15895484D02*
X14134015Y-15895484D01*
X14134015Y-15895484D02*
X14067348Y-15971674D01*
X14067348Y-15971674D02*
X14095920Y-15971674D01*
X14095920Y-15971674D02*
X14114968Y-15981198D01*
X14114968Y-15981198D02*
X14124491Y-15990722D01*
X14124491Y-15990722D02*
X14134015Y-16009769D01*
X14134015Y-16009769D02*
X14134015Y-16057388D01*
X14134015Y-16057388D02*
X14124491Y-16076436D01*
X14124491Y-16076436D02*
X14114968Y-16085960D01*
X14114968Y-16085960D02*
X14095920Y-16095484D01*
X14095920Y-16095484D02*
X14038777Y-16095484D01*
X14038777Y-16095484D02*
X14019729Y-16085960D01*
X14019729Y-16085960D02*
X14010206Y-16076436D01*
X14372110Y-16095484D02*
X14372110Y-15895484D01*
X14457825Y-16095484D02*
X14457825Y-15990722D01*
X14457825Y-15990722D02*
X14448301Y-15971674D01*
X14448301Y-15971674D02*
X14429253Y-15962150D01*
X14429253Y-15962150D02*
X14400682Y-15962150D01*
X14400682Y-15962150D02*
X14381634Y-15971674D01*
X14381634Y-15971674D02*
X14372110Y-15981198D01*
X14581634Y-16095484D02*
X14562587Y-16085960D01*
X14562587Y-16085960D02*
X14553063Y-16076436D01*
X14553063Y-16076436D02*
X14543539Y-16057388D01*
X14543539Y-16057388D02*
X14543539Y-16000246D01*
X14543539Y-16000246D02*
X14553063Y-15981198D01*
X14553063Y-15981198D02*
X14562587Y-15971674D01*
X14562587Y-15971674D02*
X14581634Y-15962150D01*
X14581634Y-15962150D02*
X14610206Y-15962150D01*
X14610206Y-15962150D02*
X14629253Y-15971674D01*
X14629253Y-15971674D02*
X14638777Y-15981198D01*
X14638777Y-15981198D02*
X14648301Y-16000246D01*
X14648301Y-16000246D02*
X14648301Y-16057388D01*
X14648301Y-16057388D02*
X14638777Y-16076436D01*
X14638777Y-16076436D02*
X14629253Y-16085960D01*
X14629253Y-16085960D02*
X14610206Y-16095484D01*
X14610206Y-16095484D02*
X14581634Y-16095484D01*
X14762587Y-16095484D02*
X14743539Y-16085960D01*
X14743539Y-16085960D02*
X14734015Y-16066912D01*
X14734015Y-16066912D02*
X14734015Y-15895484D01*
X14914968Y-16085960D02*
X14895920Y-16095484D01*
X14895920Y-16095484D02*
X14857825Y-16095484D01*
X14857825Y-16095484D02*
X14838777Y-16085960D01*
X14838777Y-16085960D02*
X14829253Y-16066912D01*
X14829253Y-16066912D02*
X14829253Y-15990722D01*
X14829253Y-15990722D02*
X14838777Y-15971674D01*
X14838777Y-15971674D02*
X14857825Y-15962150D01*
X14857825Y-15962150D02*
X14895920Y-15962150D01*
X14895920Y-15962150D02*
X14914968Y-15971674D01*
X14914968Y-15971674D02*
X14924491Y-15990722D01*
X14924491Y-15990722D02*
X14924491Y-16009769D01*
X14924491Y-16009769D02*
X14829253Y-16028817D01*
X15000682Y-16085960D02*
X15019730Y-16095484D01*
X15019730Y-16095484D02*
X15057825Y-16095484D01*
X15057825Y-16095484D02*
X15076872Y-16085960D01*
X15076872Y-16085960D02*
X15086396Y-16066912D01*
X15086396Y-16066912D02*
X15086396Y-16057388D01*
X15086396Y-16057388D02*
X15076872Y-16038341D01*
X15076872Y-16038341D02*
X15057825Y-16028817D01*
X15057825Y-16028817D02*
X15029253Y-16028817D01*
X15029253Y-16028817D02*
X15010206Y-16019293D01*
X15010206Y-16019293D02*
X15000682Y-16000246D01*
X15000682Y-16000246D02*
X15000682Y-15990722D01*
X15000682Y-15990722D02*
X15010206Y-15971674D01*
X15010206Y-15971674D02*
X15029253Y-15962150D01*
X15029253Y-15962150D02*
X15057825Y-15962150D01*
X15057825Y-15962150D02*
X15076872Y-15971674D01*
X15153063Y-16171674D02*
X15162587Y-16162150D01*
X15162587Y-16162150D02*
X15181634Y-16133579D01*
X15181634Y-16133579D02*
X15191158Y-16114531D01*
X15191158Y-16114531D02*
X15200682Y-16085960D01*
X15200682Y-16085960D02*
X15210206Y-16038341D01*
X15210206Y-16038341D02*
X15210206Y-16000246D01*
X15210206Y-16000246D02*
X15200682Y-15952627D01*
X15200682Y-15952627D02*
X15191158Y-15924055D01*
X15191158Y-15924055D02*
X15181634Y-15905008D01*
X15181634Y-15905008D02*
X15162587Y-15876436D01*
X15162587Y-15876436D02*
X15153063Y-15866912D01*
D11*
X10378000Y-16268000D02*
G75*
G02*
X10286000Y-16268000I-46000J0D01*
G01*
X10286000Y-16268000D02*
G75*
G02*
X10378000Y-16268000I46000J0D01*
G01*
D10*
X10676872Y-16159484D02*
X10695920Y-16159484D01*
X10695920Y-16159484D02*
X10714967Y-16169008D01*
X10714967Y-16169008D02*
X10724491Y-16178531D01*
X10724491Y-16178531D02*
X10734015Y-16197579D01*
X10734015Y-16197579D02*
X10743539Y-16235674D01*
X10743539Y-16235674D02*
X10743539Y-16283293D01*
X10743539Y-16283293D02*
X10734015Y-16321388D01*
X10734015Y-16321388D02*
X10724491Y-16340436D01*
X10724491Y-16340436D02*
X10714967Y-16349960D01*
X10714967Y-16349960D02*
X10695920Y-16359484D01*
X10695920Y-16359484D02*
X10676872Y-16359484D01*
X10676872Y-16359484D02*
X10657824Y-16349960D01*
X10657824Y-16349960D02*
X10648301Y-16340436D01*
X10648301Y-16340436D02*
X10638777Y-16321388D01*
X10638777Y-16321388D02*
X10629253Y-16283293D01*
X10629253Y-16283293D02*
X10629253Y-16235674D01*
X10629253Y-16235674D02*
X10638777Y-16197579D01*
X10638777Y-16197579D02*
X10648301Y-16178531D01*
X10648301Y-16178531D02*
X10657824Y-16169008D01*
X10657824Y-16169008D02*
X10676872Y-16159484D01*
X10829253Y-16340436D02*
X10838777Y-16349960D01*
X10838777Y-16349960D02*
X10829253Y-16359484D01*
X10829253Y-16359484D02*
X10819729Y-16349960D01*
X10819729Y-16349960D02*
X10829253Y-16340436D01*
X10829253Y-16340436D02*
X10829253Y-16359484D01*
X10934015Y-16359484D02*
X10972110Y-16359484D01*
X10972110Y-16359484D02*
X10991158Y-16349960D01*
X10991158Y-16349960D02*
X11000682Y-16340436D01*
X11000682Y-16340436D02*
X11019729Y-16311865D01*
X11019729Y-16311865D02*
X11029253Y-16273769D01*
X11029253Y-16273769D02*
X11029253Y-16197579D01*
X11029253Y-16197579D02*
X11019729Y-16178531D01*
X11019729Y-16178531D02*
X11010205Y-16169008D01*
X11010205Y-16169008D02*
X10991158Y-16159484D01*
X10991158Y-16159484D02*
X10953063Y-16159484D01*
X10953063Y-16159484D02*
X10934015Y-16169008D01*
X10934015Y-16169008D02*
X10924491Y-16178531D01*
X10924491Y-16178531D02*
X10914967Y-16197579D01*
X10914967Y-16197579D02*
X10914967Y-16245198D01*
X10914967Y-16245198D02*
X10924491Y-16264246D01*
X10924491Y-16264246D02*
X10934015Y-16273769D01*
X10934015Y-16273769D02*
X10953063Y-16283293D01*
X10953063Y-16283293D02*
X10991158Y-16283293D01*
X10991158Y-16283293D02*
X11010205Y-16273769D01*
X11010205Y-16273769D02*
X11019729Y-16264246D01*
X11019729Y-16264246D02*
X11029253Y-16245198D01*
X11105444Y-16178531D02*
X11114967Y-16169008D01*
X11114967Y-16169008D02*
X11134015Y-16159484D01*
X11134015Y-16159484D02*
X11181634Y-16159484D01*
X11181634Y-16159484D02*
X11200682Y-16169008D01*
X11200682Y-16169008D02*
X11210205Y-16178531D01*
X11210205Y-16178531D02*
X11219729Y-16197579D01*
X11219729Y-16197579D02*
X11219729Y-16216627D01*
X11219729Y-16216627D02*
X11210205Y-16245198D01*
X11210205Y-16245198D02*
X11095920Y-16359484D01*
X11095920Y-16359484D02*
X11219729Y-16359484D01*
X11343539Y-16159484D02*
X11362586Y-16159484D01*
X11362586Y-16159484D02*
X11381634Y-16169008D01*
X11381634Y-16169008D02*
X11391158Y-16178531D01*
X11391158Y-16178531D02*
X11400682Y-16197579D01*
X11400682Y-16197579D02*
X11410205Y-16235674D01*
X11410205Y-16235674D02*
X11410205Y-16283293D01*
X11410205Y-16283293D02*
X11400682Y-16321388D01*
X11400682Y-16321388D02*
X11391158Y-16340436D01*
X11391158Y-16340436D02*
X11381634Y-16349960D01*
X11381634Y-16349960D02*
X11362586Y-16359484D01*
X11362586Y-16359484D02*
X11343539Y-16359484D01*
X11343539Y-16359484D02*
X11324491Y-16349960D01*
X11324491Y-16349960D02*
X11314967Y-16340436D01*
X11314967Y-16340436D02*
X11305443Y-16321388D01*
X11305443Y-16321388D02*
X11295920Y-16283293D01*
X11295920Y-16283293D02*
X11295920Y-16235674D01*
X11295920Y-16235674D02*
X11305443Y-16197579D01*
X11305443Y-16197579D02*
X11314967Y-16178531D01*
X11314967Y-16178531D02*
X11324491Y-16169008D01*
X11324491Y-16169008D02*
X11343539Y-16159484D01*
X11495920Y-16359484D02*
X11495920Y-16226150D01*
X11495920Y-16245198D02*
X11505443Y-16235674D01*
X11505443Y-16235674D02*
X11524491Y-16226150D01*
X11524491Y-16226150D02*
X11553063Y-16226150D01*
X11553063Y-16226150D02*
X11572110Y-16235674D01*
X11572110Y-16235674D02*
X11581634Y-16254722D01*
X11581634Y-16254722D02*
X11581634Y-16359484D01*
X11581634Y-16254722D02*
X11591158Y-16235674D01*
X11591158Y-16235674D02*
X11610205Y-16226150D01*
X11610205Y-16226150D02*
X11638777Y-16226150D01*
X11638777Y-16226150D02*
X11657824Y-16235674D01*
X11657824Y-16235674D02*
X11667348Y-16254722D01*
X11667348Y-16254722D02*
X11667348Y-16359484D01*
X11762586Y-16359484D02*
X11762586Y-16226150D01*
X11762586Y-16245198D02*
X11772110Y-16235674D01*
X11772110Y-16235674D02*
X11791158Y-16226150D01*
X11791158Y-16226150D02*
X11819729Y-16226150D01*
X11819729Y-16226150D02*
X11838777Y-16235674D01*
X11838777Y-16235674D02*
X11848301Y-16254722D01*
X11848301Y-16254722D02*
X11848301Y-16359484D01*
X11848301Y-16254722D02*
X11857824Y-16235674D01*
X11857824Y-16235674D02*
X11876872Y-16226150D01*
X11876872Y-16226150D02*
X11905443Y-16226150D01*
X11905443Y-16226150D02*
X11924491Y-16235674D01*
X11924491Y-16235674D02*
X11934015Y-16254722D01*
X11934015Y-16254722D02*
X11934015Y-16359484D01*
X12324491Y-16149960D02*
X12153063Y-16407103D01*
X12581634Y-16159484D02*
X12600682Y-16159484D01*
X12600682Y-16159484D02*
X12619729Y-16169008D01*
X12619729Y-16169008D02*
X12629253Y-16178531D01*
X12629253Y-16178531D02*
X12638777Y-16197579D01*
X12638777Y-16197579D02*
X12648301Y-16235674D01*
X12648301Y-16235674D02*
X12648301Y-16283293D01*
X12648301Y-16283293D02*
X12638777Y-16321388D01*
X12638777Y-16321388D02*
X12629253Y-16340436D01*
X12629253Y-16340436D02*
X12619729Y-16349960D01*
X12619729Y-16349960D02*
X12600682Y-16359484D01*
X12600682Y-16359484D02*
X12581634Y-16359484D01*
X12581634Y-16359484D02*
X12562586Y-16349960D01*
X12562586Y-16349960D02*
X12553063Y-16340436D01*
X12553063Y-16340436D02*
X12543539Y-16321388D01*
X12543539Y-16321388D02*
X12534015Y-16283293D01*
X12534015Y-16283293D02*
X12534015Y-16235674D01*
X12534015Y-16235674D02*
X12543539Y-16197579D01*
X12543539Y-16197579D02*
X12553063Y-16178531D01*
X12553063Y-16178531D02*
X12562586Y-16169008D01*
X12562586Y-16169008D02*
X12581634Y-16159484D01*
X12734015Y-16340436D02*
X12743539Y-16349960D01*
X12743539Y-16349960D02*
X12734015Y-16359484D01*
X12734015Y-16359484D02*
X12724491Y-16349960D01*
X12724491Y-16349960D02*
X12734015Y-16340436D01*
X12734015Y-16340436D02*
X12734015Y-16359484D01*
X12867348Y-16159484D02*
X12886396Y-16159484D01*
X12886396Y-16159484D02*
X12905444Y-16169008D01*
X12905444Y-16169008D02*
X12914967Y-16178531D01*
X12914967Y-16178531D02*
X12924491Y-16197579D01*
X12924491Y-16197579D02*
X12934015Y-16235674D01*
X12934015Y-16235674D02*
X12934015Y-16283293D01*
X12934015Y-16283293D02*
X12924491Y-16321388D01*
X12924491Y-16321388D02*
X12914967Y-16340436D01*
X12914967Y-16340436D02*
X12905444Y-16349960D01*
X12905444Y-16349960D02*
X12886396Y-16359484D01*
X12886396Y-16359484D02*
X12867348Y-16359484D01*
X12867348Y-16359484D02*
X12848301Y-16349960D01*
X12848301Y-16349960D02*
X12838777Y-16340436D01*
X12838777Y-16340436D02*
X12829253Y-16321388D01*
X12829253Y-16321388D02*
X12819729Y-16283293D01*
X12819729Y-16283293D02*
X12819729Y-16235674D01*
X12819729Y-16235674D02*
X12829253Y-16197579D01*
X12829253Y-16197579D02*
X12838777Y-16178531D01*
X12838777Y-16178531D02*
X12848301Y-16169008D01*
X12848301Y-16169008D02*
X12867348Y-16159484D01*
X13000682Y-16159484D02*
X13124491Y-16159484D01*
X13124491Y-16159484D02*
X13057825Y-16235674D01*
X13057825Y-16235674D02*
X13086396Y-16235674D01*
X13086396Y-16235674D02*
X13105444Y-16245198D01*
X13105444Y-16245198D02*
X13114967Y-16254722D01*
X13114967Y-16254722D02*
X13124491Y-16273769D01*
X13124491Y-16273769D02*
X13124491Y-16321388D01*
X13124491Y-16321388D02*
X13114967Y-16340436D01*
X13114967Y-16340436D02*
X13105444Y-16349960D01*
X13105444Y-16349960D02*
X13086396Y-16359484D01*
X13086396Y-16359484D02*
X13029253Y-16359484D01*
X13029253Y-16359484D02*
X13010206Y-16349960D01*
X13010206Y-16349960D02*
X13000682Y-16340436D01*
X13295920Y-16159484D02*
X13257825Y-16159484D01*
X13257825Y-16159484D02*
X13238777Y-16169008D01*
X13238777Y-16169008D02*
X13229253Y-16178531D01*
X13229253Y-16178531D02*
X13210206Y-16207103D01*
X13210206Y-16207103D02*
X13200682Y-16245198D01*
X13200682Y-16245198D02*
X13200682Y-16321388D01*
X13200682Y-16321388D02*
X13210206Y-16340436D01*
X13210206Y-16340436D02*
X13219729Y-16349960D01*
X13219729Y-16349960D02*
X13238777Y-16359484D01*
X13238777Y-16359484D02*
X13276872Y-16359484D01*
X13276872Y-16359484D02*
X13295920Y-16349960D01*
X13295920Y-16349960D02*
X13305444Y-16340436D01*
X13305444Y-16340436D02*
X13314967Y-16321388D01*
X13314967Y-16321388D02*
X13314967Y-16273769D01*
X13314967Y-16273769D02*
X13305444Y-16254722D01*
X13305444Y-16254722D02*
X13295920Y-16245198D01*
X13295920Y-16245198D02*
X13276872Y-16235674D01*
X13276872Y-16235674D02*
X13238777Y-16235674D01*
X13238777Y-16235674D02*
X13219729Y-16245198D01*
X13219729Y-16245198D02*
X13210206Y-16254722D01*
X13210206Y-16254722D02*
X13200682Y-16273769D01*
X13391158Y-16178531D02*
X13400682Y-16169008D01*
X13400682Y-16169008D02*
X13419729Y-16159484D01*
X13419729Y-16159484D02*
X13467348Y-16159484D01*
X13467348Y-16159484D02*
X13486396Y-16169008D01*
X13486396Y-16169008D02*
X13495920Y-16178531D01*
X13495920Y-16178531D02*
X13505444Y-16197579D01*
X13505444Y-16197579D02*
X13505444Y-16216627D01*
X13505444Y-16216627D02*
X13495920Y-16245198D01*
X13495920Y-16245198D02*
X13381634Y-16359484D01*
X13381634Y-16359484D02*
X13505444Y-16359484D01*
X13581634Y-16159484D02*
X13581634Y-16197579D01*
X13657825Y-16159484D02*
X13657825Y-16197579D01*
X13953063Y-16435674D02*
X13943539Y-16426150D01*
X13943539Y-16426150D02*
X13924491Y-16397579D01*
X13924491Y-16397579D02*
X13914968Y-16378531D01*
X13914968Y-16378531D02*
X13905444Y-16349960D01*
X13905444Y-16349960D02*
X13895920Y-16302341D01*
X13895920Y-16302341D02*
X13895920Y-16264246D01*
X13895920Y-16264246D02*
X13905444Y-16216627D01*
X13905444Y-16216627D02*
X13914968Y-16188055D01*
X13914968Y-16188055D02*
X13924491Y-16169008D01*
X13924491Y-16169008D02*
X13943539Y-16140436D01*
X13943539Y-16140436D02*
X13953063Y-16130912D01*
X14019729Y-16178531D02*
X14029253Y-16169008D01*
X14029253Y-16169008D02*
X14048301Y-16159484D01*
X14048301Y-16159484D02*
X14095920Y-16159484D01*
X14095920Y-16159484D02*
X14114968Y-16169008D01*
X14114968Y-16169008D02*
X14124491Y-16178531D01*
X14124491Y-16178531D02*
X14134015Y-16197579D01*
X14134015Y-16197579D02*
X14134015Y-16216627D01*
X14134015Y-16216627D02*
X14124491Y-16245198D01*
X14124491Y-16245198D02*
X14010206Y-16359484D01*
X14010206Y-16359484D02*
X14134015Y-16359484D01*
X14305444Y-16226150D02*
X14305444Y-16359484D01*
X14257825Y-16149960D02*
X14210206Y-16292817D01*
X14210206Y-16292817D02*
X14334015Y-16292817D01*
X14562587Y-16359484D02*
X14562587Y-16159484D01*
X14648301Y-16359484D02*
X14648301Y-16254722D01*
X14648301Y-16254722D02*
X14638777Y-16235674D01*
X14638777Y-16235674D02*
X14619730Y-16226150D01*
X14619730Y-16226150D02*
X14591158Y-16226150D01*
X14591158Y-16226150D02*
X14572110Y-16235674D01*
X14572110Y-16235674D02*
X14562587Y-16245198D01*
X14772110Y-16359484D02*
X14753063Y-16349960D01*
X14753063Y-16349960D02*
X14743539Y-16340436D01*
X14743539Y-16340436D02*
X14734015Y-16321388D01*
X14734015Y-16321388D02*
X14734015Y-16264246D01*
X14734015Y-16264246D02*
X14743539Y-16245198D01*
X14743539Y-16245198D02*
X14753063Y-16235674D01*
X14753063Y-16235674D02*
X14772110Y-16226150D01*
X14772110Y-16226150D02*
X14800682Y-16226150D01*
X14800682Y-16226150D02*
X14819730Y-16235674D01*
X14819730Y-16235674D02*
X14829253Y-16245198D01*
X14829253Y-16245198D02*
X14838777Y-16264246D01*
X14838777Y-16264246D02*
X14838777Y-16321388D01*
X14838777Y-16321388D02*
X14829253Y-16340436D01*
X14829253Y-16340436D02*
X14819730Y-16349960D01*
X14819730Y-16349960D02*
X14800682Y-16359484D01*
X14800682Y-16359484D02*
X14772110Y-16359484D01*
X14953063Y-16359484D02*
X14934015Y-16349960D01*
X14934015Y-16349960D02*
X14924491Y-16330912D01*
X14924491Y-16330912D02*
X14924491Y-16159484D01*
X15105444Y-16349960D02*
X15086396Y-16359484D01*
X15086396Y-16359484D02*
X15048301Y-16359484D01*
X15048301Y-16359484D02*
X15029253Y-16349960D01*
X15029253Y-16349960D02*
X15019730Y-16330912D01*
X15019730Y-16330912D02*
X15019730Y-16254722D01*
X15019730Y-16254722D02*
X15029253Y-16235674D01*
X15029253Y-16235674D02*
X15048301Y-16226150D01*
X15048301Y-16226150D02*
X15086396Y-16226150D01*
X15086396Y-16226150D02*
X15105444Y-16235674D01*
X15105444Y-16235674D02*
X15114968Y-16254722D01*
X15114968Y-16254722D02*
X15114968Y-16273769D01*
X15114968Y-16273769D02*
X15019730Y-16292817D01*
X15191158Y-16349960D02*
X15210206Y-16359484D01*
X15210206Y-16359484D02*
X15248301Y-16359484D01*
X15248301Y-16359484D02*
X15267349Y-16349960D01*
X15267349Y-16349960D02*
X15276872Y-16330912D01*
X15276872Y-16330912D02*
X15276872Y-16321388D01*
X15276872Y-16321388D02*
X15267349Y-16302341D01*
X15267349Y-16302341D02*
X15248301Y-16292817D01*
X15248301Y-16292817D02*
X15219730Y-16292817D01*
X15219730Y-16292817D02*
X15200682Y-16283293D01*
X15200682Y-16283293D02*
X15191158Y-16264246D01*
X15191158Y-16264246D02*
X15191158Y-16254722D01*
X15191158Y-16254722D02*
X15200682Y-16235674D01*
X15200682Y-16235674D02*
X15219730Y-16226150D01*
X15219730Y-16226150D02*
X15248301Y-16226150D01*
X15248301Y-16226150D02*
X15267349Y-16235674D01*
X15343539Y-16435674D02*
X15353063Y-16426150D01*
X15353063Y-16426150D02*
X15372111Y-16397579D01*
X15372111Y-16397579D02*
X15381634Y-16378531D01*
X15381634Y-16378531D02*
X15391158Y-16349960D01*
X15391158Y-16349960D02*
X15400682Y-16302341D01*
X15400682Y-16302341D02*
X15400682Y-16264246D01*
X15400682Y-16264246D02*
X15391158Y-16216627D01*
X15391158Y-16216627D02*
X15381634Y-16188055D01*
X15381634Y-16188055D02*
X15372111Y-16169008D01*
X15372111Y-16169008D02*
X15353063Y-16140436D01*
X15353063Y-16140436D02*
X15343539Y-16130912D01*
D11*
X10330500Y-16484500D02*
X10330500Y-16579500D01*
X10283000Y-16532000D02*
X10378000Y-16532000D01*
D10*
X10676872Y-16423484D02*
X10695920Y-16423484D01*
X10695920Y-16423484D02*
X10714967Y-16433008D01*
X10714967Y-16433008D02*
X10724491Y-16442531D01*
X10724491Y-16442531D02*
X10734015Y-16461579D01*
X10734015Y-16461579D02*
X10743539Y-16499674D01*
X10743539Y-16499674D02*
X10743539Y-16547293D01*
X10743539Y-16547293D02*
X10734015Y-16585388D01*
X10734015Y-16585388D02*
X10724491Y-16604436D01*
X10724491Y-16604436D02*
X10714967Y-16613960D01*
X10714967Y-16613960D02*
X10695920Y-16623484D01*
X10695920Y-16623484D02*
X10676872Y-16623484D01*
X10676872Y-16623484D02*
X10657824Y-16613960D01*
X10657824Y-16613960D02*
X10648301Y-16604436D01*
X10648301Y-16604436D02*
X10638777Y-16585388D01*
X10638777Y-16585388D02*
X10629253Y-16547293D01*
X10629253Y-16547293D02*
X10629253Y-16499674D01*
X10629253Y-16499674D02*
X10638777Y-16461579D01*
X10638777Y-16461579D02*
X10648301Y-16442531D01*
X10648301Y-16442531D02*
X10657824Y-16433008D01*
X10657824Y-16433008D02*
X10676872Y-16423484D01*
X10829253Y-16604436D02*
X10838777Y-16613960D01*
X10838777Y-16613960D02*
X10829253Y-16623484D01*
X10829253Y-16623484D02*
X10819729Y-16613960D01*
X10819729Y-16613960D02*
X10829253Y-16604436D01*
X10829253Y-16604436D02*
X10829253Y-16623484D01*
X10934015Y-16623484D02*
X10972110Y-16623484D01*
X10972110Y-16623484D02*
X10991158Y-16613960D01*
X10991158Y-16613960D02*
X11000682Y-16604436D01*
X11000682Y-16604436D02*
X11019729Y-16575865D01*
X11019729Y-16575865D02*
X11029253Y-16537769D01*
X11029253Y-16537769D02*
X11029253Y-16461579D01*
X11029253Y-16461579D02*
X11019729Y-16442531D01*
X11019729Y-16442531D02*
X11010205Y-16433008D01*
X11010205Y-16433008D02*
X10991158Y-16423484D01*
X10991158Y-16423484D02*
X10953063Y-16423484D01*
X10953063Y-16423484D02*
X10934015Y-16433008D01*
X10934015Y-16433008D02*
X10924491Y-16442531D01*
X10924491Y-16442531D02*
X10914967Y-16461579D01*
X10914967Y-16461579D02*
X10914967Y-16509198D01*
X10914967Y-16509198D02*
X10924491Y-16528246D01*
X10924491Y-16528246D02*
X10934015Y-16537769D01*
X10934015Y-16537769D02*
X10953063Y-16547293D01*
X10953063Y-16547293D02*
X10991158Y-16547293D01*
X10991158Y-16547293D02*
X11010205Y-16537769D01*
X11010205Y-16537769D02*
X11019729Y-16528246D01*
X11019729Y-16528246D02*
X11029253Y-16509198D01*
X11210205Y-16423484D02*
X11114967Y-16423484D01*
X11114967Y-16423484D02*
X11105444Y-16518722D01*
X11105444Y-16518722D02*
X11114967Y-16509198D01*
X11114967Y-16509198D02*
X11134015Y-16499674D01*
X11134015Y-16499674D02*
X11181634Y-16499674D01*
X11181634Y-16499674D02*
X11200682Y-16509198D01*
X11200682Y-16509198D02*
X11210205Y-16518722D01*
X11210205Y-16518722D02*
X11219729Y-16537769D01*
X11219729Y-16537769D02*
X11219729Y-16585388D01*
X11219729Y-16585388D02*
X11210205Y-16604436D01*
X11210205Y-16604436D02*
X11200682Y-16613960D01*
X11200682Y-16613960D02*
X11181634Y-16623484D01*
X11181634Y-16623484D02*
X11134015Y-16623484D01*
X11134015Y-16623484D02*
X11114967Y-16613960D01*
X11114967Y-16613960D02*
X11105444Y-16604436D01*
X11343539Y-16423484D02*
X11362586Y-16423484D01*
X11362586Y-16423484D02*
X11381634Y-16433008D01*
X11381634Y-16433008D02*
X11391158Y-16442531D01*
X11391158Y-16442531D02*
X11400682Y-16461579D01*
X11400682Y-16461579D02*
X11410205Y-16499674D01*
X11410205Y-16499674D02*
X11410205Y-16547293D01*
X11410205Y-16547293D02*
X11400682Y-16585388D01*
X11400682Y-16585388D02*
X11391158Y-16604436D01*
X11391158Y-16604436D02*
X11381634Y-16613960D01*
X11381634Y-16613960D02*
X11362586Y-16623484D01*
X11362586Y-16623484D02*
X11343539Y-16623484D01*
X11343539Y-16623484D02*
X11324491Y-16613960D01*
X11324491Y-16613960D02*
X11314967Y-16604436D01*
X11314967Y-16604436D02*
X11305443Y-16585388D01*
X11305443Y-16585388D02*
X11295920Y-16547293D01*
X11295920Y-16547293D02*
X11295920Y-16499674D01*
X11295920Y-16499674D02*
X11305443Y-16461579D01*
X11305443Y-16461579D02*
X11314967Y-16442531D01*
X11314967Y-16442531D02*
X11324491Y-16433008D01*
X11324491Y-16433008D02*
X11343539Y-16423484D01*
X11495920Y-16623484D02*
X11495920Y-16490150D01*
X11495920Y-16509198D02*
X11505443Y-16499674D01*
X11505443Y-16499674D02*
X11524491Y-16490150D01*
X11524491Y-16490150D02*
X11553063Y-16490150D01*
X11553063Y-16490150D02*
X11572110Y-16499674D01*
X11572110Y-16499674D02*
X11581634Y-16518722D01*
X11581634Y-16518722D02*
X11581634Y-16623484D01*
X11581634Y-16518722D02*
X11591158Y-16499674D01*
X11591158Y-16499674D02*
X11610205Y-16490150D01*
X11610205Y-16490150D02*
X11638777Y-16490150D01*
X11638777Y-16490150D02*
X11657824Y-16499674D01*
X11657824Y-16499674D02*
X11667348Y-16518722D01*
X11667348Y-16518722D02*
X11667348Y-16623484D01*
X11762586Y-16623484D02*
X11762586Y-16490150D01*
X11762586Y-16509198D02*
X11772110Y-16499674D01*
X11772110Y-16499674D02*
X11791158Y-16490150D01*
X11791158Y-16490150D02*
X11819729Y-16490150D01*
X11819729Y-16490150D02*
X11838777Y-16499674D01*
X11838777Y-16499674D02*
X11848301Y-16518722D01*
X11848301Y-16518722D02*
X11848301Y-16623484D01*
X11848301Y-16518722D02*
X11857824Y-16499674D01*
X11857824Y-16499674D02*
X11876872Y-16490150D01*
X11876872Y-16490150D02*
X11905443Y-16490150D01*
X11905443Y-16490150D02*
X11924491Y-16499674D01*
X11924491Y-16499674D02*
X11934015Y-16518722D01*
X11934015Y-16518722D02*
X11934015Y-16623484D01*
X12324491Y-16413960D02*
X12153063Y-16671103D01*
X12581634Y-16423484D02*
X12600682Y-16423484D01*
X12600682Y-16423484D02*
X12619729Y-16433008D01*
X12619729Y-16433008D02*
X12629253Y-16442531D01*
X12629253Y-16442531D02*
X12638777Y-16461579D01*
X12638777Y-16461579D02*
X12648301Y-16499674D01*
X12648301Y-16499674D02*
X12648301Y-16547293D01*
X12648301Y-16547293D02*
X12638777Y-16585388D01*
X12638777Y-16585388D02*
X12629253Y-16604436D01*
X12629253Y-16604436D02*
X12619729Y-16613960D01*
X12619729Y-16613960D02*
X12600682Y-16623484D01*
X12600682Y-16623484D02*
X12581634Y-16623484D01*
X12581634Y-16623484D02*
X12562586Y-16613960D01*
X12562586Y-16613960D02*
X12553063Y-16604436D01*
X12553063Y-16604436D02*
X12543539Y-16585388D01*
X12543539Y-16585388D02*
X12534015Y-16547293D01*
X12534015Y-16547293D02*
X12534015Y-16499674D01*
X12534015Y-16499674D02*
X12543539Y-16461579D01*
X12543539Y-16461579D02*
X12553063Y-16442531D01*
X12553063Y-16442531D02*
X12562586Y-16433008D01*
X12562586Y-16433008D02*
X12581634Y-16423484D01*
X12734015Y-16604436D02*
X12743539Y-16613960D01*
X12743539Y-16613960D02*
X12734015Y-16623484D01*
X12734015Y-16623484D02*
X12724491Y-16613960D01*
X12724491Y-16613960D02*
X12734015Y-16604436D01*
X12734015Y-16604436D02*
X12734015Y-16623484D01*
X12867348Y-16423484D02*
X12886396Y-16423484D01*
X12886396Y-16423484D02*
X12905444Y-16433008D01*
X12905444Y-16433008D02*
X12914967Y-16442531D01*
X12914967Y-16442531D02*
X12924491Y-16461579D01*
X12924491Y-16461579D02*
X12934015Y-16499674D01*
X12934015Y-16499674D02*
X12934015Y-16547293D01*
X12934015Y-16547293D02*
X12924491Y-16585388D01*
X12924491Y-16585388D02*
X12914967Y-16604436D01*
X12914967Y-16604436D02*
X12905444Y-16613960D01*
X12905444Y-16613960D02*
X12886396Y-16623484D01*
X12886396Y-16623484D02*
X12867348Y-16623484D01*
X12867348Y-16623484D02*
X12848301Y-16613960D01*
X12848301Y-16613960D02*
X12838777Y-16604436D01*
X12838777Y-16604436D02*
X12829253Y-16585388D01*
X12829253Y-16585388D02*
X12819729Y-16547293D01*
X12819729Y-16547293D02*
X12819729Y-16499674D01*
X12819729Y-16499674D02*
X12829253Y-16461579D01*
X12829253Y-16461579D02*
X12838777Y-16442531D01*
X12838777Y-16442531D02*
X12848301Y-16433008D01*
X12848301Y-16433008D02*
X12867348Y-16423484D01*
X13000682Y-16423484D02*
X13124491Y-16423484D01*
X13124491Y-16423484D02*
X13057825Y-16499674D01*
X13057825Y-16499674D02*
X13086396Y-16499674D01*
X13086396Y-16499674D02*
X13105444Y-16509198D01*
X13105444Y-16509198D02*
X13114967Y-16518722D01*
X13114967Y-16518722D02*
X13124491Y-16537769D01*
X13124491Y-16537769D02*
X13124491Y-16585388D01*
X13124491Y-16585388D02*
X13114967Y-16604436D01*
X13114967Y-16604436D02*
X13105444Y-16613960D01*
X13105444Y-16613960D02*
X13086396Y-16623484D01*
X13086396Y-16623484D02*
X13029253Y-16623484D01*
X13029253Y-16623484D02*
X13010206Y-16613960D01*
X13010206Y-16613960D02*
X13000682Y-16604436D01*
X13191158Y-16423484D02*
X13324491Y-16423484D01*
X13324491Y-16423484D02*
X13238777Y-16623484D01*
X13486396Y-16490150D02*
X13486396Y-16623484D01*
X13438777Y-16413960D02*
X13391158Y-16556817D01*
X13391158Y-16556817D02*
X13514967Y-16556817D01*
X13581634Y-16423484D02*
X13581634Y-16461579D01*
X13657825Y-16423484D02*
X13657825Y-16461579D01*
X13953063Y-16699674D02*
X13943539Y-16690150D01*
X13943539Y-16690150D02*
X13924491Y-16661579D01*
X13924491Y-16661579D02*
X13914968Y-16642531D01*
X13914968Y-16642531D02*
X13905444Y-16613960D01*
X13905444Y-16613960D02*
X13895920Y-16566341D01*
X13895920Y-16566341D02*
X13895920Y-16528246D01*
X13895920Y-16528246D02*
X13905444Y-16480627D01*
X13905444Y-16480627D02*
X13914968Y-16452055D01*
X13914968Y-16452055D02*
X13924491Y-16433008D01*
X13924491Y-16433008D02*
X13943539Y-16404436D01*
X13943539Y-16404436D02*
X13953063Y-16394912D01*
X14134015Y-16623484D02*
X14019729Y-16623484D01*
X14076872Y-16623484D02*
X14076872Y-16423484D01*
X14076872Y-16423484D02*
X14057825Y-16452055D01*
X14057825Y-16452055D02*
X14038777Y-16471103D01*
X14038777Y-16471103D02*
X14019729Y-16480627D01*
X14210206Y-16442531D02*
X14219729Y-16433008D01*
X14219729Y-16433008D02*
X14238777Y-16423484D01*
X14238777Y-16423484D02*
X14286396Y-16423484D01*
X14286396Y-16423484D02*
X14305444Y-16433008D01*
X14305444Y-16433008D02*
X14314968Y-16442531D01*
X14314968Y-16442531D02*
X14324491Y-16461579D01*
X14324491Y-16461579D02*
X14324491Y-16480627D01*
X14324491Y-16480627D02*
X14314968Y-16509198D01*
X14314968Y-16509198D02*
X14200682Y-16623484D01*
X14200682Y-16623484D02*
X14324491Y-16623484D01*
X14562587Y-16623484D02*
X14562587Y-16423484D01*
X14648301Y-16623484D02*
X14648301Y-16518722D01*
X14648301Y-16518722D02*
X14638777Y-16499674D01*
X14638777Y-16499674D02*
X14619730Y-16490150D01*
X14619730Y-16490150D02*
X14591158Y-16490150D01*
X14591158Y-16490150D02*
X14572110Y-16499674D01*
X14572110Y-16499674D02*
X14562587Y-16509198D01*
X14772110Y-16623484D02*
X14753063Y-16613960D01*
X14753063Y-16613960D02*
X14743539Y-16604436D01*
X14743539Y-16604436D02*
X14734015Y-16585388D01*
X14734015Y-16585388D02*
X14734015Y-16528246D01*
X14734015Y-16528246D02*
X14743539Y-16509198D01*
X14743539Y-16509198D02*
X14753063Y-16499674D01*
X14753063Y-16499674D02*
X14772110Y-16490150D01*
X14772110Y-16490150D02*
X14800682Y-16490150D01*
X14800682Y-16490150D02*
X14819730Y-16499674D01*
X14819730Y-16499674D02*
X14829253Y-16509198D01*
X14829253Y-16509198D02*
X14838777Y-16528246D01*
X14838777Y-16528246D02*
X14838777Y-16585388D01*
X14838777Y-16585388D02*
X14829253Y-16604436D01*
X14829253Y-16604436D02*
X14819730Y-16613960D01*
X14819730Y-16613960D02*
X14800682Y-16623484D01*
X14800682Y-16623484D02*
X14772110Y-16623484D01*
X14953063Y-16623484D02*
X14934015Y-16613960D01*
X14934015Y-16613960D02*
X14924491Y-16594912D01*
X14924491Y-16594912D02*
X14924491Y-16423484D01*
X15105444Y-16613960D02*
X15086396Y-16623484D01*
X15086396Y-16623484D02*
X15048301Y-16623484D01*
X15048301Y-16623484D02*
X15029253Y-16613960D01*
X15029253Y-16613960D02*
X15019730Y-16594912D01*
X15019730Y-16594912D02*
X15019730Y-16518722D01*
X15019730Y-16518722D02*
X15029253Y-16499674D01*
X15029253Y-16499674D02*
X15048301Y-16490150D01*
X15048301Y-16490150D02*
X15086396Y-16490150D01*
X15086396Y-16490150D02*
X15105444Y-16499674D01*
X15105444Y-16499674D02*
X15114968Y-16518722D01*
X15114968Y-16518722D02*
X15114968Y-16537769D01*
X15114968Y-16537769D02*
X15019730Y-16556817D01*
X15191158Y-16613960D02*
X15210206Y-16623484D01*
X15210206Y-16623484D02*
X15248301Y-16623484D01*
X15248301Y-16623484D02*
X15267349Y-16613960D01*
X15267349Y-16613960D02*
X15276872Y-16594912D01*
X15276872Y-16594912D02*
X15276872Y-16585388D01*
X15276872Y-16585388D02*
X15267349Y-16566341D01*
X15267349Y-16566341D02*
X15248301Y-16556817D01*
X15248301Y-16556817D02*
X15219730Y-16556817D01*
X15219730Y-16556817D02*
X15200682Y-16547293D01*
X15200682Y-16547293D02*
X15191158Y-16528246D01*
X15191158Y-16528246D02*
X15191158Y-16518722D01*
X15191158Y-16518722D02*
X15200682Y-16499674D01*
X15200682Y-16499674D02*
X15219730Y-16490150D01*
X15219730Y-16490150D02*
X15248301Y-16490150D01*
X15248301Y-16490150D02*
X15267349Y-16499674D01*
X15343539Y-16699674D02*
X15353063Y-16690150D01*
X15353063Y-16690150D02*
X15372111Y-16661579D01*
X15372111Y-16661579D02*
X15381634Y-16642531D01*
X15381634Y-16642531D02*
X15391158Y-16613960D01*
X15391158Y-16613960D02*
X15400682Y-16566341D01*
X15400682Y-16566341D02*
X15400682Y-16528246D01*
X15400682Y-16528246D02*
X15391158Y-16480627D01*
X15391158Y-16480627D02*
X15381634Y-16452055D01*
X15381634Y-16452055D02*
X15372111Y-16433008D01*
X15372111Y-16433008D02*
X15353063Y-16404436D01*
X15353063Y-16404436D02*
X15343539Y-16394912D01*
D11*
X10363356Y-16831356D02*
X10363356Y-16760644D01*
X10292644Y-16760644D01*
X10292644Y-16831356D01*
X10363356Y-16831356D01*
D10*
X10743539Y-16887484D02*
X10629253Y-16887484D01*
X10686396Y-16887484D02*
X10686396Y-16687484D01*
X10686396Y-16687484D02*
X10667348Y-16716055D01*
X10667348Y-16716055D02*
X10648301Y-16735103D01*
X10648301Y-16735103D02*
X10629253Y-16744627D01*
X10829253Y-16868436D02*
X10838777Y-16877960D01*
X10838777Y-16877960D02*
X10829253Y-16887484D01*
X10829253Y-16887484D02*
X10819729Y-16877960D01*
X10819729Y-16877960D02*
X10829253Y-16868436D01*
X10829253Y-16868436D02*
X10829253Y-16887484D01*
X10962586Y-16687484D02*
X10981634Y-16687484D01*
X10981634Y-16687484D02*
X11000682Y-16697008D01*
X11000682Y-16697008D02*
X11010205Y-16706531D01*
X11010205Y-16706531D02*
X11019729Y-16725579D01*
X11019729Y-16725579D02*
X11029253Y-16763674D01*
X11029253Y-16763674D02*
X11029253Y-16811293D01*
X11029253Y-16811293D02*
X11019729Y-16849389D01*
X11019729Y-16849389D02*
X11010205Y-16868436D01*
X11010205Y-16868436D02*
X11000682Y-16877960D01*
X11000682Y-16877960D02*
X10981634Y-16887484D01*
X10981634Y-16887484D02*
X10962586Y-16887484D01*
X10962586Y-16887484D02*
X10943539Y-16877960D01*
X10943539Y-16877960D02*
X10934015Y-16868436D01*
X10934015Y-16868436D02*
X10924491Y-16849389D01*
X10924491Y-16849389D02*
X10914967Y-16811293D01*
X10914967Y-16811293D02*
X10914967Y-16763674D01*
X10914967Y-16763674D02*
X10924491Y-16725579D01*
X10924491Y-16725579D02*
X10934015Y-16706531D01*
X10934015Y-16706531D02*
X10943539Y-16697008D01*
X10943539Y-16697008D02*
X10962586Y-16687484D01*
X11153063Y-16687484D02*
X11172110Y-16687484D01*
X11172110Y-16687484D02*
X11191158Y-16697008D01*
X11191158Y-16697008D02*
X11200682Y-16706531D01*
X11200682Y-16706531D02*
X11210205Y-16725579D01*
X11210205Y-16725579D02*
X11219729Y-16763674D01*
X11219729Y-16763674D02*
X11219729Y-16811293D01*
X11219729Y-16811293D02*
X11210205Y-16849389D01*
X11210205Y-16849389D02*
X11200682Y-16868436D01*
X11200682Y-16868436D02*
X11191158Y-16877960D01*
X11191158Y-16877960D02*
X11172110Y-16887484D01*
X11172110Y-16887484D02*
X11153063Y-16887484D01*
X11153063Y-16887484D02*
X11134015Y-16877960D01*
X11134015Y-16877960D02*
X11124491Y-16868436D01*
X11124491Y-16868436D02*
X11114967Y-16849389D01*
X11114967Y-16849389D02*
X11105444Y-16811293D01*
X11105444Y-16811293D02*
X11105444Y-16763674D01*
X11105444Y-16763674D02*
X11114967Y-16725579D01*
X11114967Y-16725579D02*
X11124491Y-16706531D01*
X11124491Y-16706531D02*
X11134015Y-16697008D01*
X11134015Y-16697008D02*
X11153063Y-16687484D01*
X11343539Y-16687484D02*
X11362586Y-16687484D01*
X11362586Y-16687484D02*
X11381634Y-16697008D01*
X11381634Y-16697008D02*
X11391158Y-16706531D01*
X11391158Y-16706531D02*
X11400682Y-16725579D01*
X11400682Y-16725579D02*
X11410205Y-16763674D01*
X11410205Y-16763674D02*
X11410205Y-16811293D01*
X11410205Y-16811293D02*
X11400682Y-16849389D01*
X11400682Y-16849389D02*
X11391158Y-16868436D01*
X11391158Y-16868436D02*
X11381634Y-16877960D01*
X11381634Y-16877960D02*
X11362586Y-16887484D01*
X11362586Y-16887484D02*
X11343539Y-16887484D01*
X11343539Y-16887484D02*
X11324491Y-16877960D01*
X11324491Y-16877960D02*
X11314967Y-16868436D01*
X11314967Y-16868436D02*
X11305443Y-16849389D01*
X11305443Y-16849389D02*
X11295920Y-16811293D01*
X11295920Y-16811293D02*
X11295920Y-16763674D01*
X11295920Y-16763674D02*
X11305443Y-16725579D01*
X11305443Y-16725579D02*
X11314967Y-16706531D01*
X11314967Y-16706531D02*
X11324491Y-16697008D01*
X11324491Y-16697008D02*
X11343539Y-16687484D01*
X11495920Y-16887484D02*
X11495920Y-16754150D01*
X11495920Y-16773198D02*
X11505443Y-16763674D01*
X11505443Y-16763674D02*
X11524491Y-16754150D01*
X11524491Y-16754150D02*
X11553063Y-16754150D01*
X11553063Y-16754150D02*
X11572110Y-16763674D01*
X11572110Y-16763674D02*
X11581634Y-16782722D01*
X11581634Y-16782722D02*
X11581634Y-16887484D01*
X11581634Y-16782722D02*
X11591158Y-16763674D01*
X11591158Y-16763674D02*
X11610205Y-16754150D01*
X11610205Y-16754150D02*
X11638777Y-16754150D01*
X11638777Y-16754150D02*
X11657824Y-16763674D01*
X11657824Y-16763674D02*
X11667348Y-16782722D01*
X11667348Y-16782722D02*
X11667348Y-16887484D01*
X11762586Y-16887484D02*
X11762586Y-16754150D01*
X11762586Y-16773198D02*
X11772110Y-16763674D01*
X11772110Y-16763674D02*
X11791158Y-16754150D01*
X11791158Y-16754150D02*
X11819729Y-16754150D01*
X11819729Y-16754150D02*
X11838777Y-16763674D01*
X11838777Y-16763674D02*
X11848301Y-16782722D01*
X11848301Y-16782722D02*
X11848301Y-16887484D01*
X11848301Y-16782722D02*
X11857824Y-16763674D01*
X11857824Y-16763674D02*
X11876872Y-16754150D01*
X11876872Y-16754150D02*
X11905443Y-16754150D01*
X11905443Y-16754150D02*
X11924491Y-16763674D01*
X11924491Y-16763674D02*
X11934015Y-16782722D01*
X11934015Y-16782722D02*
X11934015Y-16887484D01*
X12324491Y-16677960D02*
X12153063Y-16935103D01*
X12581634Y-16687484D02*
X12600682Y-16687484D01*
X12600682Y-16687484D02*
X12619729Y-16697008D01*
X12619729Y-16697008D02*
X12629253Y-16706531D01*
X12629253Y-16706531D02*
X12638777Y-16725579D01*
X12638777Y-16725579D02*
X12648301Y-16763674D01*
X12648301Y-16763674D02*
X12648301Y-16811293D01*
X12648301Y-16811293D02*
X12638777Y-16849389D01*
X12638777Y-16849389D02*
X12629253Y-16868436D01*
X12629253Y-16868436D02*
X12619729Y-16877960D01*
X12619729Y-16877960D02*
X12600682Y-16887484D01*
X12600682Y-16887484D02*
X12581634Y-16887484D01*
X12581634Y-16887484D02*
X12562586Y-16877960D01*
X12562586Y-16877960D02*
X12553063Y-16868436D01*
X12553063Y-16868436D02*
X12543539Y-16849389D01*
X12543539Y-16849389D02*
X12534015Y-16811293D01*
X12534015Y-16811293D02*
X12534015Y-16763674D01*
X12534015Y-16763674D02*
X12543539Y-16725579D01*
X12543539Y-16725579D02*
X12553063Y-16706531D01*
X12553063Y-16706531D02*
X12562586Y-16697008D01*
X12562586Y-16697008D02*
X12581634Y-16687484D01*
X12734015Y-16868436D02*
X12743539Y-16877960D01*
X12743539Y-16877960D02*
X12734015Y-16887484D01*
X12734015Y-16887484D02*
X12724491Y-16877960D01*
X12724491Y-16877960D02*
X12734015Y-16868436D01*
X12734015Y-16868436D02*
X12734015Y-16887484D01*
X12867348Y-16687484D02*
X12886396Y-16687484D01*
X12886396Y-16687484D02*
X12905444Y-16697008D01*
X12905444Y-16697008D02*
X12914967Y-16706531D01*
X12914967Y-16706531D02*
X12924491Y-16725579D01*
X12924491Y-16725579D02*
X12934015Y-16763674D01*
X12934015Y-16763674D02*
X12934015Y-16811293D01*
X12934015Y-16811293D02*
X12924491Y-16849389D01*
X12924491Y-16849389D02*
X12914967Y-16868436D01*
X12914967Y-16868436D02*
X12905444Y-16877960D01*
X12905444Y-16877960D02*
X12886396Y-16887484D01*
X12886396Y-16887484D02*
X12867348Y-16887484D01*
X12867348Y-16887484D02*
X12848301Y-16877960D01*
X12848301Y-16877960D02*
X12838777Y-16868436D01*
X12838777Y-16868436D02*
X12829253Y-16849389D01*
X12829253Y-16849389D02*
X12819729Y-16811293D01*
X12819729Y-16811293D02*
X12819729Y-16763674D01*
X12819729Y-16763674D02*
X12829253Y-16725579D01*
X12829253Y-16725579D02*
X12838777Y-16706531D01*
X12838777Y-16706531D02*
X12848301Y-16697008D01*
X12848301Y-16697008D02*
X12867348Y-16687484D01*
X13000682Y-16687484D02*
X13124491Y-16687484D01*
X13124491Y-16687484D02*
X13057825Y-16763674D01*
X13057825Y-16763674D02*
X13086396Y-16763674D01*
X13086396Y-16763674D02*
X13105444Y-16773198D01*
X13105444Y-16773198D02*
X13114967Y-16782722D01*
X13114967Y-16782722D02*
X13124491Y-16801770D01*
X13124491Y-16801770D02*
X13124491Y-16849389D01*
X13124491Y-16849389D02*
X13114967Y-16868436D01*
X13114967Y-16868436D02*
X13105444Y-16877960D01*
X13105444Y-16877960D02*
X13086396Y-16887484D01*
X13086396Y-16887484D02*
X13029253Y-16887484D01*
X13029253Y-16887484D02*
X13010206Y-16877960D01*
X13010206Y-16877960D02*
X13000682Y-16868436D01*
X13219729Y-16887484D02*
X13257825Y-16887484D01*
X13257825Y-16887484D02*
X13276872Y-16877960D01*
X13276872Y-16877960D02*
X13286396Y-16868436D01*
X13286396Y-16868436D02*
X13305444Y-16839865D01*
X13305444Y-16839865D02*
X13314967Y-16801770D01*
X13314967Y-16801770D02*
X13314967Y-16725579D01*
X13314967Y-16725579D02*
X13305444Y-16706531D01*
X13305444Y-16706531D02*
X13295920Y-16697008D01*
X13295920Y-16697008D02*
X13276872Y-16687484D01*
X13276872Y-16687484D02*
X13238777Y-16687484D01*
X13238777Y-16687484D02*
X13219729Y-16697008D01*
X13219729Y-16697008D02*
X13210206Y-16706531D01*
X13210206Y-16706531D02*
X13200682Y-16725579D01*
X13200682Y-16725579D02*
X13200682Y-16773198D01*
X13200682Y-16773198D02*
X13210206Y-16792246D01*
X13210206Y-16792246D02*
X13219729Y-16801770D01*
X13219729Y-16801770D02*
X13238777Y-16811293D01*
X13238777Y-16811293D02*
X13276872Y-16811293D01*
X13276872Y-16811293D02*
X13295920Y-16801770D01*
X13295920Y-16801770D02*
X13305444Y-16792246D01*
X13305444Y-16792246D02*
X13314967Y-16773198D01*
X13486396Y-16754150D02*
X13486396Y-16887484D01*
X13438777Y-16677960D02*
X13391158Y-16820817D01*
X13391158Y-16820817D02*
X13514967Y-16820817D01*
X13581634Y-16687484D02*
X13581634Y-16725579D01*
X13657825Y-16687484D02*
X13657825Y-16725579D01*
X13953063Y-16963674D02*
X13943539Y-16954150D01*
X13943539Y-16954150D02*
X13924491Y-16925579D01*
X13924491Y-16925579D02*
X13914968Y-16906531D01*
X13914968Y-16906531D02*
X13905444Y-16877960D01*
X13905444Y-16877960D02*
X13895920Y-16830341D01*
X13895920Y-16830341D02*
X13895920Y-16792246D01*
X13895920Y-16792246D02*
X13905444Y-16744627D01*
X13905444Y-16744627D02*
X13914968Y-16716055D01*
X13914968Y-16716055D02*
X13924491Y-16697008D01*
X13924491Y-16697008D02*
X13943539Y-16668436D01*
X13943539Y-16668436D02*
X13953063Y-16658912D01*
X14134015Y-16887484D02*
X14019729Y-16887484D01*
X14076872Y-16887484D02*
X14076872Y-16687484D01*
X14076872Y-16687484D02*
X14057825Y-16716055D01*
X14057825Y-16716055D02*
X14038777Y-16735103D01*
X14038777Y-16735103D02*
X14019729Y-16744627D01*
X14257825Y-16687484D02*
X14276872Y-16687484D01*
X14276872Y-16687484D02*
X14295920Y-16697008D01*
X14295920Y-16697008D02*
X14305444Y-16706531D01*
X14305444Y-16706531D02*
X14314968Y-16725579D01*
X14314968Y-16725579D02*
X14324491Y-16763674D01*
X14324491Y-16763674D02*
X14324491Y-16811293D01*
X14324491Y-16811293D02*
X14314968Y-16849389D01*
X14314968Y-16849389D02*
X14305444Y-16868436D01*
X14305444Y-16868436D02*
X14295920Y-16877960D01*
X14295920Y-16877960D02*
X14276872Y-16887484D01*
X14276872Y-16887484D02*
X14257825Y-16887484D01*
X14257825Y-16887484D02*
X14238777Y-16877960D01*
X14238777Y-16877960D02*
X14229253Y-16868436D01*
X14229253Y-16868436D02*
X14219729Y-16849389D01*
X14219729Y-16849389D02*
X14210206Y-16811293D01*
X14210206Y-16811293D02*
X14210206Y-16763674D01*
X14210206Y-16763674D02*
X14219729Y-16725579D01*
X14219729Y-16725579D02*
X14229253Y-16706531D01*
X14229253Y-16706531D02*
X14238777Y-16697008D01*
X14238777Y-16697008D02*
X14257825Y-16687484D01*
X14438777Y-16773198D02*
X14419729Y-16763674D01*
X14419729Y-16763674D02*
X14410206Y-16754150D01*
X14410206Y-16754150D02*
X14400682Y-16735103D01*
X14400682Y-16735103D02*
X14400682Y-16725579D01*
X14400682Y-16725579D02*
X14410206Y-16706531D01*
X14410206Y-16706531D02*
X14419729Y-16697008D01*
X14419729Y-16697008D02*
X14438777Y-16687484D01*
X14438777Y-16687484D02*
X14476872Y-16687484D01*
X14476872Y-16687484D02*
X14495920Y-16697008D01*
X14495920Y-16697008D02*
X14505444Y-16706531D01*
X14505444Y-16706531D02*
X14514968Y-16725579D01*
X14514968Y-16725579D02*
X14514968Y-16735103D01*
X14514968Y-16735103D02*
X14505444Y-16754150D01*
X14505444Y-16754150D02*
X14495920Y-16763674D01*
X14495920Y-16763674D02*
X14476872Y-16773198D01*
X14476872Y-16773198D02*
X14438777Y-16773198D01*
X14438777Y-16773198D02*
X14419729Y-16782722D01*
X14419729Y-16782722D02*
X14410206Y-16792246D01*
X14410206Y-16792246D02*
X14400682Y-16811293D01*
X14400682Y-16811293D02*
X14400682Y-16849389D01*
X14400682Y-16849389D02*
X14410206Y-16868436D01*
X14410206Y-16868436D02*
X14419729Y-16877960D01*
X14419729Y-16877960D02*
X14438777Y-16887484D01*
X14438777Y-16887484D02*
X14476872Y-16887484D01*
X14476872Y-16887484D02*
X14495920Y-16877960D01*
X14495920Y-16877960D02*
X14505444Y-16868436D01*
X14505444Y-16868436D02*
X14514968Y-16849389D01*
X14514968Y-16849389D02*
X14514968Y-16811293D01*
X14514968Y-16811293D02*
X14505444Y-16792246D01*
X14505444Y-16792246D02*
X14495920Y-16782722D01*
X14495920Y-16782722D02*
X14476872Y-16773198D01*
X14753063Y-16887484D02*
X14753063Y-16687484D01*
X14838777Y-16887484D02*
X14838777Y-16782722D01*
X14838777Y-16782722D02*
X14829253Y-16763674D01*
X14829253Y-16763674D02*
X14810206Y-16754150D01*
X14810206Y-16754150D02*
X14781634Y-16754150D01*
X14781634Y-16754150D02*
X14762587Y-16763674D01*
X14762587Y-16763674D02*
X14753063Y-16773198D01*
X14962587Y-16887484D02*
X14943539Y-16877960D01*
X14943539Y-16877960D02*
X14934015Y-16868436D01*
X14934015Y-16868436D02*
X14924491Y-16849389D01*
X14924491Y-16849389D02*
X14924491Y-16792246D01*
X14924491Y-16792246D02*
X14934015Y-16773198D01*
X14934015Y-16773198D02*
X14943539Y-16763674D01*
X14943539Y-16763674D02*
X14962587Y-16754150D01*
X14962587Y-16754150D02*
X14991158Y-16754150D01*
X14991158Y-16754150D02*
X15010206Y-16763674D01*
X15010206Y-16763674D02*
X15019730Y-16773198D01*
X15019730Y-16773198D02*
X15029253Y-16792246D01*
X15029253Y-16792246D02*
X15029253Y-16849389D01*
X15029253Y-16849389D02*
X15019730Y-16868436D01*
X15019730Y-16868436D02*
X15010206Y-16877960D01*
X15010206Y-16877960D02*
X14991158Y-16887484D01*
X14991158Y-16887484D02*
X14962587Y-16887484D01*
X15143539Y-16887484D02*
X15124491Y-16877960D01*
X15124491Y-16877960D02*
X15114968Y-16858912D01*
X15114968Y-16858912D02*
X15114968Y-16687484D01*
X15295920Y-16877960D02*
X15276872Y-16887484D01*
X15276872Y-16887484D02*
X15238777Y-16887484D01*
X15238777Y-16887484D02*
X15219730Y-16877960D01*
X15219730Y-16877960D02*
X15210206Y-16858912D01*
X15210206Y-16858912D02*
X15210206Y-16782722D01*
X15210206Y-16782722D02*
X15219730Y-16763674D01*
X15219730Y-16763674D02*
X15238777Y-16754150D01*
X15238777Y-16754150D02*
X15276872Y-16754150D01*
X15276872Y-16754150D02*
X15295920Y-16763674D01*
X15295920Y-16763674D02*
X15305444Y-16782722D01*
X15305444Y-16782722D02*
X15305444Y-16801770D01*
X15305444Y-16801770D02*
X15210206Y-16820817D01*
X15381634Y-16877960D02*
X15400682Y-16887484D01*
X15400682Y-16887484D02*
X15438777Y-16887484D01*
X15438777Y-16887484D02*
X15457825Y-16877960D01*
X15457825Y-16877960D02*
X15467349Y-16858912D01*
X15467349Y-16858912D02*
X15467349Y-16849389D01*
X15467349Y-16849389D02*
X15457825Y-16830341D01*
X15457825Y-16830341D02*
X15438777Y-16820817D01*
X15438777Y-16820817D02*
X15410206Y-16820817D01*
X15410206Y-16820817D02*
X15391158Y-16811293D01*
X15391158Y-16811293D02*
X15381634Y-16792246D01*
X15381634Y-16792246D02*
X15381634Y-16782722D01*
X15381634Y-16782722D02*
X15391158Y-16763674D01*
X15391158Y-16763674D02*
X15410206Y-16754150D01*
X15410206Y-16754150D02*
X15438777Y-16754150D01*
X15438777Y-16754150D02*
X15457825Y-16763674D01*
X15705444Y-16811293D02*
X15857825Y-16811293D01*
X15781634Y-16887484D02*
X15781634Y-16735103D01*
X16086396Y-16687484D02*
X16210206Y-16687484D01*
X16210206Y-16687484D02*
X16143539Y-16763674D01*
X16143539Y-16763674D02*
X16172111Y-16763674D01*
X16172111Y-16763674D02*
X16191158Y-16773198D01*
X16191158Y-16773198D02*
X16200682Y-16782722D01*
X16200682Y-16782722D02*
X16210206Y-16801770D01*
X16210206Y-16801770D02*
X16210206Y-16849389D01*
X16210206Y-16849389D02*
X16200682Y-16868436D01*
X16200682Y-16868436D02*
X16191158Y-16877960D01*
X16191158Y-16877960D02*
X16172111Y-16887484D01*
X16172111Y-16887484D02*
X16114968Y-16887484D01*
X16114968Y-16887484D02*
X16095920Y-16877960D01*
X16095920Y-16877960D02*
X16086396Y-16868436D01*
X16438777Y-16877960D02*
X16457825Y-16887484D01*
X16457825Y-16887484D02*
X16495920Y-16887484D01*
X16495920Y-16887484D02*
X16514968Y-16877960D01*
X16514968Y-16877960D02*
X16524492Y-16858912D01*
X16524492Y-16858912D02*
X16524492Y-16849389D01*
X16524492Y-16849389D02*
X16514968Y-16830341D01*
X16514968Y-16830341D02*
X16495920Y-16820817D01*
X16495920Y-16820817D02*
X16467349Y-16820817D01*
X16467349Y-16820817D02*
X16448301Y-16811293D01*
X16448301Y-16811293D02*
X16438777Y-16792246D01*
X16438777Y-16792246D02*
X16438777Y-16782722D01*
X16438777Y-16782722D02*
X16448301Y-16763674D01*
X16448301Y-16763674D02*
X16467349Y-16754150D01*
X16467349Y-16754150D02*
X16495920Y-16754150D01*
X16495920Y-16754150D02*
X16514968Y-16763674D01*
X16638777Y-16887484D02*
X16619730Y-16877960D01*
X16619730Y-16877960D02*
X16610206Y-16858912D01*
X16610206Y-16858912D02*
X16610206Y-16687484D01*
X16743539Y-16887484D02*
X16724492Y-16877960D01*
X16724492Y-16877960D02*
X16714968Y-16868436D01*
X16714968Y-16868436D02*
X16705444Y-16849389D01*
X16705444Y-16849389D02*
X16705444Y-16792246D01*
X16705444Y-16792246D02*
X16714968Y-16773198D01*
X16714968Y-16773198D02*
X16724492Y-16763674D01*
X16724492Y-16763674D02*
X16743539Y-16754150D01*
X16743539Y-16754150D02*
X16772111Y-16754150D01*
X16772111Y-16754150D02*
X16791158Y-16763674D01*
X16791158Y-16763674D02*
X16800682Y-16773198D01*
X16800682Y-16773198D02*
X16810206Y-16792246D01*
X16810206Y-16792246D02*
X16810206Y-16849389D01*
X16810206Y-16849389D02*
X16800682Y-16868436D01*
X16800682Y-16868436D02*
X16791158Y-16877960D01*
X16791158Y-16877960D02*
X16772111Y-16887484D01*
X16772111Y-16887484D02*
X16743539Y-16887484D01*
X16867349Y-16754150D02*
X16943539Y-16754150D01*
X16895920Y-16687484D02*
X16895920Y-16858912D01*
X16895920Y-16858912D02*
X16905444Y-16877960D01*
X16905444Y-16877960D02*
X16924492Y-16887484D01*
X16924492Y-16887484D02*
X16943539Y-16887484D01*
X17000682Y-16877960D02*
X17019730Y-16887484D01*
X17019730Y-16887484D02*
X17057825Y-16887484D01*
X17057825Y-16887484D02*
X17076873Y-16877960D01*
X17076873Y-16877960D02*
X17086397Y-16858912D01*
X17086397Y-16858912D02*
X17086397Y-16849389D01*
X17086397Y-16849389D02*
X17076873Y-16830341D01*
X17076873Y-16830341D02*
X17057825Y-16820817D01*
X17057825Y-16820817D02*
X17029254Y-16820817D01*
X17029254Y-16820817D02*
X17010206Y-16811293D01*
X17010206Y-16811293D02*
X17000682Y-16792246D01*
X17000682Y-16792246D02*
X17000682Y-16782722D01*
X17000682Y-16782722D02*
X17010206Y-16763674D01*
X17010206Y-16763674D02*
X17029254Y-16754150D01*
X17029254Y-16754150D02*
X17057825Y-16754150D01*
X17057825Y-16754150D02*
X17076873Y-16763674D01*
X17153063Y-16963674D02*
X17162587Y-16954150D01*
X17162587Y-16954150D02*
X17181635Y-16925579D01*
X17181635Y-16925579D02*
X17191158Y-16906531D01*
X17191158Y-16906531D02*
X17200682Y-16877960D01*
X17200682Y-16877960D02*
X17210206Y-16830341D01*
X17210206Y-16830341D02*
X17210206Y-16792246D01*
X17210206Y-16792246D02*
X17200682Y-16744627D01*
X17200682Y-16744627D02*
X17191158Y-16716055D01*
X17191158Y-16716055D02*
X17181635Y-16697008D01*
X17181635Y-16697008D02*
X17162587Y-16668436D01*
X17162587Y-16668436D02*
X17153063Y-16658912D01*
X10278000Y-17160000D02*
X10378000Y-17060000D01*
X10278000Y-16960000D01*
X10178000Y-17060000D01*
X10278000Y-17160000D01*
X10629253Y-16970531D02*
X10638777Y-16961008D01*
X10638777Y-16961008D02*
X10657824Y-16951484D01*
X10657824Y-16951484D02*
X10705444Y-16951484D01*
X10705444Y-16951484D02*
X10724491Y-16961008D01*
X10724491Y-16961008D02*
X10734015Y-16970531D01*
X10734015Y-16970531D02*
X10743539Y-16989579D01*
X10743539Y-16989579D02*
X10743539Y-17008627D01*
X10743539Y-17008627D02*
X10734015Y-17037198D01*
X10734015Y-17037198D02*
X10619729Y-17151484D01*
X10619729Y-17151484D02*
X10743539Y-17151484D01*
X10829253Y-17132436D02*
X10838777Y-17141960D01*
X10838777Y-17141960D02*
X10829253Y-17151484D01*
X10829253Y-17151484D02*
X10819729Y-17141960D01*
X10819729Y-17141960D02*
X10829253Y-17132436D01*
X10829253Y-17132436D02*
X10829253Y-17151484D01*
X10905444Y-16951484D02*
X11029253Y-16951484D01*
X11029253Y-16951484D02*
X10962586Y-17027674D01*
X10962586Y-17027674D02*
X10991158Y-17027674D01*
X10991158Y-17027674D02*
X11010205Y-17037198D01*
X11010205Y-17037198D02*
X11019729Y-17046722D01*
X11019729Y-17046722D02*
X11029253Y-17065770D01*
X11029253Y-17065770D02*
X11029253Y-17113389D01*
X11029253Y-17113389D02*
X11019729Y-17132436D01*
X11019729Y-17132436D02*
X11010205Y-17141960D01*
X11010205Y-17141960D02*
X10991158Y-17151484D01*
X10991158Y-17151484D02*
X10934015Y-17151484D01*
X10934015Y-17151484D02*
X10914967Y-17141960D01*
X10914967Y-17141960D02*
X10905444Y-17132436D01*
X11153063Y-16951484D02*
X11172110Y-16951484D01*
X11172110Y-16951484D02*
X11191158Y-16961008D01*
X11191158Y-16961008D02*
X11200682Y-16970531D01*
X11200682Y-16970531D02*
X11210205Y-16989579D01*
X11210205Y-16989579D02*
X11219729Y-17027674D01*
X11219729Y-17027674D02*
X11219729Y-17075293D01*
X11219729Y-17075293D02*
X11210205Y-17113389D01*
X11210205Y-17113389D02*
X11200682Y-17132436D01*
X11200682Y-17132436D02*
X11191158Y-17141960D01*
X11191158Y-17141960D02*
X11172110Y-17151484D01*
X11172110Y-17151484D02*
X11153063Y-17151484D01*
X11153063Y-17151484D02*
X11134015Y-17141960D01*
X11134015Y-17141960D02*
X11124491Y-17132436D01*
X11124491Y-17132436D02*
X11114967Y-17113389D01*
X11114967Y-17113389D02*
X11105444Y-17075293D01*
X11105444Y-17075293D02*
X11105444Y-17027674D01*
X11105444Y-17027674D02*
X11114967Y-16989579D01*
X11114967Y-16989579D02*
X11124491Y-16970531D01*
X11124491Y-16970531D02*
X11134015Y-16961008D01*
X11134015Y-16961008D02*
X11153063Y-16951484D01*
X11343539Y-16951484D02*
X11362586Y-16951484D01*
X11362586Y-16951484D02*
X11381634Y-16961008D01*
X11381634Y-16961008D02*
X11391158Y-16970531D01*
X11391158Y-16970531D02*
X11400682Y-16989579D01*
X11400682Y-16989579D02*
X11410205Y-17027674D01*
X11410205Y-17027674D02*
X11410205Y-17075293D01*
X11410205Y-17075293D02*
X11400682Y-17113389D01*
X11400682Y-17113389D02*
X11391158Y-17132436D01*
X11391158Y-17132436D02*
X11381634Y-17141960D01*
X11381634Y-17141960D02*
X11362586Y-17151484D01*
X11362586Y-17151484D02*
X11343539Y-17151484D01*
X11343539Y-17151484D02*
X11324491Y-17141960D01*
X11324491Y-17141960D02*
X11314967Y-17132436D01*
X11314967Y-17132436D02*
X11305443Y-17113389D01*
X11305443Y-17113389D02*
X11295920Y-17075293D01*
X11295920Y-17075293D02*
X11295920Y-17027674D01*
X11295920Y-17027674D02*
X11305443Y-16989579D01*
X11305443Y-16989579D02*
X11314967Y-16970531D01*
X11314967Y-16970531D02*
X11324491Y-16961008D01*
X11324491Y-16961008D02*
X11343539Y-16951484D01*
X11495920Y-17151484D02*
X11495920Y-17018150D01*
X11495920Y-17037198D02*
X11505443Y-17027674D01*
X11505443Y-17027674D02*
X11524491Y-17018150D01*
X11524491Y-17018150D02*
X11553063Y-17018150D01*
X11553063Y-17018150D02*
X11572110Y-17027674D01*
X11572110Y-17027674D02*
X11581634Y-17046722D01*
X11581634Y-17046722D02*
X11581634Y-17151484D01*
X11581634Y-17046722D02*
X11591158Y-17027674D01*
X11591158Y-17027674D02*
X11610205Y-17018150D01*
X11610205Y-17018150D02*
X11638777Y-17018150D01*
X11638777Y-17018150D02*
X11657824Y-17027674D01*
X11657824Y-17027674D02*
X11667348Y-17046722D01*
X11667348Y-17046722D02*
X11667348Y-17151484D01*
X11762586Y-17151484D02*
X11762586Y-17018150D01*
X11762586Y-17037198D02*
X11772110Y-17027674D01*
X11772110Y-17027674D02*
X11791158Y-17018150D01*
X11791158Y-17018150D02*
X11819729Y-17018150D01*
X11819729Y-17018150D02*
X11838777Y-17027674D01*
X11838777Y-17027674D02*
X11848301Y-17046722D01*
X11848301Y-17046722D02*
X11848301Y-17151484D01*
X11848301Y-17046722D02*
X11857824Y-17027674D01*
X11857824Y-17027674D02*
X11876872Y-17018150D01*
X11876872Y-17018150D02*
X11905443Y-17018150D01*
X11905443Y-17018150D02*
X11924491Y-17027674D01*
X11924491Y-17027674D02*
X11934015Y-17046722D01*
X11934015Y-17046722D02*
X11934015Y-17151484D01*
X12324491Y-16941960D02*
X12153063Y-17199103D01*
X12581634Y-16951484D02*
X12600682Y-16951484D01*
X12600682Y-16951484D02*
X12619729Y-16961008D01*
X12619729Y-16961008D02*
X12629253Y-16970531D01*
X12629253Y-16970531D02*
X12638777Y-16989579D01*
X12638777Y-16989579D02*
X12648301Y-17027674D01*
X12648301Y-17027674D02*
X12648301Y-17075293D01*
X12648301Y-17075293D02*
X12638777Y-17113389D01*
X12638777Y-17113389D02*
X12629253Y-17132436D01*
X12629253Y-17132436D02*
X12619729Y-17141960D01*
X12619729Y-17141960D02*
X12600682Y-17151484D01*
X12600682Y-17151484D02*
X12581634Y-17151484D01*
X12581634Y-17151484D02*
X12562586Y-17141960D01*
X12562586Y-17141960D02*
X12553063Y-17132436D01*
X12553063Y-17132436D02*
X12543539Y-17113389D01*
X12543539Y-17113389D02*
X12534015Y-17075293D01*
X12534015Y-17075293D02*
X12534015Y-17027674D01*
X12534015Y-17027674D02*
X12543539Y-16989579D01*
X12543539Y-16989579D02*
X12553063Y-16970531D01*
X12553063Y-16970531D02*
X12562586Y-16961008D01*
X12562586Y-16961008D02*
X12581634Y-16951484D01*
X12734015Y-17132436D02*
X12743539Y-17141960D01*
X12743539Y-17141960D02*
X12734015Y-17151484D01*
X12734015Y-17151484D02*
X12724491Y-17141960D01*
X12724491Y-17141960D02*
X12734015Y-17132436D01*
X12734015Y-17132436D02*
X12734015Y-17151484D01*
X12867348Y-16951484D02*
X12886396Y-16951484D01*
X12886396Y-16951484D02*
X12905444Y-16961008D01*
X12905444Y-16961008D02*
X12914967Y-16970531D01*
X12914967Y-16970531D02*
X12924491Y-16989579D01*
X12924491Y-16989579D02*
X12934015Y-17027674D01*
X12934015Y-17027674D02*
X12934015Y-17075293D01*
X12934015Y-17075293D02*
X12924491Y-17113389D01*
X12924491Y-17113389D02*
X12914967Y-17132436D01*
X12914967Y-17132436D02*
X12905444Y-17141960D01*
X12905444Y-17141960D02*
X12886396Y-17151484D01*
X12886396Y-17151484D02*
X12867348Y-17151484D01*
X12867348Y-17151484D02*
X12848301Y-17141960D01*
X12848301Y-17141960D02*
X12838777Y-17132436D01*
X12838777Y-17132436D02*
X12829253Y-17113389D01*
X12829253Y-17113389D02*
X12819729Y-17075293D01*
X12819729Y-17075293D02*
X12819729Y-17027674D01*
X12819729Y-17027674D02*
X12829253Y-16989579D01*
X12829253Y-16989579D02*
X12838777Y-16970531D01*
X12838777Y-16970531D02*
X12848301Y-16961008D01*
X12848301Y-16961008D02*
X12867348Y-16951484D01*
X13029253Y-17151484D02*
X13067348Y-17151484D01*
X13067348Y-17151484D02*
X13086396Y-17141960D01*
X13086396Y-17141960D02*
X13095920Y-17132436D01*
X13095920Y-17132436D02*
X13114967Y-17103865D01*
X13114967Y-17103865D02*
X13124491Y-17065770D01*
X13124491Y-17065770D02*
X13124491Y-16989579D01*
X13124491Y-16989579D02*
X13114967Y-16970531D01*
X13114967Y-16970531D02*
X13105444Y-16961008D01*
X13105444Y-16961008D02*
X13086396Y-16951484D01*
X13086396Y-16951484D02*
X13048301Y-16951484D01*
X13048301Y-16951484D02*
X13029253Y-16961008D01*
X13029253Y-16961008D02*
X13019729Y-16970531D01*
X13019729Y-16970531D02*
X13010206Y-16989579D01*
X13010206Y-16989579D02*
X13010206Y-17037198D01*
X13010206Y-17037198D02*
X13019729Y-17056246D01*
X13019729Y-17056246D02*
X13029253Y-17065770D01*
X13029253Y-17065770D02*
X13048301Y-17075293D01*
X13048301Y-17075293D02*
X13086396Y-17075293D01*
X13086396Y-17075293D02*
X13105444Y-17065770D01*
X13105444Y-17065770D02*
X13114967Y-17056246D01*
X13114967Y-17056246D02*
X13124491Y-17037198D01*
X13248301Y-16951484D02*
X13267348Y-16951484D01*
X13267348Y-16951484D02*
X13286396Y-16961008D01*
X13286396Y-16961008D02*
X13295920Y-16970531D01*
X13295920Y-16970531D02*
X13305444Y-16989579D01*
X13305444Y-16989579D02*
X13314967Y-17027674D01*
X13314967Y-17027674D02*
X13314967Y-17075293D01*
X13314967Y-17075293D02*
X13305444Y-17113389D01*
X13305444Y-17113389D02*
X13295920Y-17132436D01*
X13295920Y-17132436D02*
X13286396Y-17141960D01*
X13286396Y-17141960D02*
X13267348Y-17151484D01*
X13267348Y-17151484D02*
X13248301Y-17151484D01*
X13248301Y-17151484D02*
X13229253Y-17141960D01*
X13229253Y-17141960D02*
X13219729Y-17132436D01*
X13219729Y-17132436D02*
X13210206Y-17113389D01*
X13210206Y-17113389D02*
X13200682Y-17075293D01*
X13200682Y-17075293D02*
X13200682Y-17027674D01*
X13200682Y-17027674D02*
X13210206Y-16989579D01*
X13210206Y-16989579D02*
X13219729Y-16970531D01*
X13219729Y-16970531D02*
X13229253Y-16961008D01*
X13229253Y-16961008D02*
X13248301Y-16951484D01*
X13486396Y-16951484D02*
X13448301Y-16951484D01*
X13448301Y-16951484D02*
X13429253Y-16961008D01*
X13429253Y-16961008D02*
X13419729Y-16970531D01*
X13419729Y-16970531D02*
X13400682Y-16999103D01*
X13400682Y-16999103D02*
X13391158Y-17037198D01*
X13391158Y-17037198D02*
X13391158Y-17113389D01*
X13391158Y-17113389D02*
X13400682Y-17132436D01*
X13400682Y-17132436D02*
X13410206Y-17141960D01*
X13410206Y-17141960D02*
X13429253Y-17151484D01*
X13429253Y-17151484D02*
X13467348Y-17151484D01*
X13467348Y-17151484D02*
X13486396Y-17141960D01*
X13486396Y-17141960D02*
X13495920Y-17132436D01*
X13495920Y-17132436D02*
X13505444Y-17113389D01*
X13505444Y-17113389D02*
X13505444Y-17065770D01*
X13505444Y-17065770D02*
X13495920Y-17046722D01*
X13495920Y-17046722D02*
X13486396Y-17037198D01*
X13486396Y-17037198D02*
X13467348Y-17027674D01*
X13467348Y-17027674D02*
X13429253Y-17027674D01*
X13429253Y-17027674D02*
X13410206Y-17037198D01*
X13410206Y-17037198D02*
X13400682Y-17046722D01*
X13400682Y-17046722D02*
X13391158Y-17065770D01*
X13581634Y-16951484D02*
X13581634Y-16989579D01*
X13657825Y-16951484D02*
X13657825Y-16989579D01*
X13953063Y-17227674D02*
X13943539Y-17218150D01*
X13943539Y-17218150D02*
X13924491Y-17189579D01*
X13924491Y-17189579D02*
X13914968Y-17170531D01*
X13914968Y-17170531D02*
X13905444Y-17141960D01*
X13905444Y-17141960D02*
X13895920Y-17094341D01*
X13895920Y-17094341D02*
X13895920Y-17056246D01*
X13895920Y-17056246D02*
X13905444Y-17008627D01*
X13905444Y-17008627D02*
X13914968Y-16980055D01*
X13914968Y-16980055D02*
X13924491Y-16961008D01*
X13924491Y-16961008D02*
X13943539Y-16932436D01*
X13943539Y-16932436D02*
X13953063Y-16922912D01*
X14134015Y-17151484D02*
X14019729Y-17151484D01*
X14076872Y-17151484D02*
X14076872Y-16951484D01*
X14076872Y-16951484D02*
X14057825Y-16980055D01*
X14057825Y-16980055D02*
X14038777Y-16999103D01*
X14038777Y-16999103D02*
X14019729Y-17008627D01*
X14210206Y-16970531D02*
X14219729Y-16961008D01*
X14219729Y-16961008D02*
X14238777Y-16951484D01*
X14238777Y-16951484D02*
X14286396Y-16951484D01*
X14286396Y-16951484D02*
X14305444Y-16961008D01*
X14305444Y-16961008D02*
X14314968Y-16970531D01*
X14314968Y-16970531D02*
X14324491Y-16989579D01*
X14324491Y-16989579D02*
X14324491Y-17008627D01*
X14324491Y-17008627D02*
X14314968Y-17037198D01*
X14314968Y-17037198D02*
X14200682Y-17151484D01*
X14200682Y-17151484D02*
X14324491Y-17151484D01*
X14562587Y-17151484D02*
X14562587Y-16951484D01*
X14648301Y-17151484D02*
X14648301Y-17046722D01*
X14648301Y-17046722D02*
X14638777Y-17027674D01*
X14638777Y-17027674D02*
X14619730Y-17018150D01*
X14619730Y-17018150D02*
X14591158Y-17018150D01*
X14591158Y-17018150D02*
X14572110Y-17027674D01*
X14572110Y-17027674D02*
X14562587Y-17037198D01*
X14772110Y-17151484D02*
X14753063Y-17141960D01*
X14753063Y-17141960D02*
X14743539Y-17132436D01*
X14743539Y-17132436D02*
X14734015Y-17113389D01*
X14734015Y-17113389D02*
X14734015Y-17056246D01*
X14734015Y-17056246D02*
X14743539Y-17037198D01*
X14743539Y-17037198D02*
X14753063Y-17027674D01*
X14753063Y-17027674D02*
X14772110Y-17018150D01*
X14772110Y-17018150D02*
X14800682Y-17018150D01*
X14800682Y-17018150D02*
X14819730Y-17027674D01*
X14819730Y-17027674D02*
X14829253Y-17037198D01*
X14829253Y-17037198D02*
X14838777Y-17056246D01*
X14838777Y-17056246D02*
X14838777Y-17113389D01*
X14838777Y-17113389D02*
X14829253Y-17132436D01*
X14829253Y-17132436D02*
X14819730Y-17141960D01*
X14819730Y-17141960D02*
X14800682Y-17151484D01*
X14800682Y-17151484D02*
X14772110Y-17151484D01*
X14953063Y-17151484D02*
X14934015Y-17141960D01*
X14934015Y-17141960D02*
X14924491Y-17122912D01*
X14924491Y-17122912D02*
X14924491Y-16951484D01*
X15105444Y-17141960D02*
X15086396Y-17151484D01*
X15086396Y-17151484D02*
X15048301Y-17151484D01*
X15048301Y-17151484D02*
X15029253Y-17141960D01*
X15029253Y-17141960D02*
X15019730Y-17122912D01*
X15019730Y-17122912D02*
X15019730Y-17046722D01*
X15019730Y-17046722D02*
X15029253Y-17027674D01*
X15029253Y-17027674D02*
X15048301Y-17018150D01*
X15048301Y-17018150D02*
X15086396Y-17018150D01*
X15086396Y-17018150D02*
X15105444Y-17027674D01*
X15105444Y-17027674D02*
X15114968Y-17046722D01*
X15114968Y-17046722D02*
X15114968Y-17065770D01*
X15114968Y-17065770D02*
X15019730Y-17084817D01*
X15191158Y-17141960D02*
X15210206Y-17151484D01*
X15210206Y-17151484D02*
X15248301Y-17151484D01*
X15248301Y-17151484D02*
X15267349Y-17141960D01*
X15267349Y-17141960D02*
X15276872Y-17122912D01*
X15276872Y-17122912D02*
X15276872Y-17113389D01*
X15276872Y-17113389D02*
X15267349Y-17094341D01*
X15267349Y-17094341D02*
X15248301Y-17084817D01*
X15248301Y-17084817D02*
X15219730Y-17084817D01*
X15219730Y-17084817D02*
X15200682Y-17075293D01*
X15200682Y-17075293D02*
X15191158Y-17056246D01*
X15191158Y-17056246D02*
X15191158Y-17046722D01*
X15191158Y-17046722D02*
X15200682Y-17027674D01*
X15200682Y-17027674D02*
X15219730Y-17018150D01*
X15219730Y-17018150D02*
X15248301Y-17018150D01*
X15248301Y-17018150D02*
X15267349Y-17027674D01*
X15343539Y-17227674D02*
X15353063Y-17218150D01*
X15353063Y-17218150D02*
X15372111Y-17189579D01*
X15372111Y-17189579D02*
X15381634Y-17170531D01*
X15381634Y-17170531D02*
X15391158Y-17141960D01*
X15391158Y-17141960D02*
X15400682Y-17094341D01*
X15400682Y-17094341D02*
X15400682Y-17056246D01*
X15400682Y-17056246D02*
X15391158Y-17008627D01*
X15391158Y-17008627D02*
X15381634Y-16980055D01*
X15381634Y-16980055D02*
X15372111Y-16961008D01*
X15372111Y-16961008D02*
X15353063Y-16932436D01*
X15353063Y-16932436D02*
X15343539Y-16922912D01*
M02*
