M48
; DRILL file {KiCad 8.0.1} date 2024-06-28T04:06:01+0700
; FORMAT={-:-/ absolute / metric / decimal}
; #@! TF.CreationDate,2024-06-28T04:06:01+07:00
; #@! TF.GenerationSoftware,Kicad,Pcbnew,8.0.1
; #@! TF.FileFunction,Plated,1,2,PTH
FMAT,2
METRIC
; #@! TA.AperFunction,Plated,PTH,ViaDrill
T1C0.400
; #@! TA.AperFunction,Plated,PTH,ComponentDrill
T2C0.920
; #@! TA.AperFunction,Plated,PTH,ComponentDrill
T3C0.950
; #@! TA.AperFunction,Plated,PTH,ComponentDrill
T4C1.000
; #@! TA.AperFunction,Plated,PTH,ComponentDrill
T5C2.300
%
G90
G05
T1
X141.55Y-90.3
X142.325Y-46.725
X142.375Y-53.875
T2
X112.96Y-41.02
X112.96Y-43.52
X112.96Y-45.52
X112.96Y-48.02
X112.96Y-99.5
X112.96Y-102.0
X112.96Y-104.0
X112.96Y-106.5
X112.96Y-119.05
X112.96Y-121.55
X112.96Y-123.55
X112.96Y-126.05
X112.96Y-138.55
X112.96Y-141.05
X112.96Y-143.05
X112.96Y-145.55
X112.977Y-60.5
X112.977Y-63.0
X112.977Y-65.0
X112.977Y-67.5
X112.977Y-80.0
X112.977Y-82.5
X112.977Y-84.5
X112.977Y-87.0
T3
X132.2Y-63.15
X132.2Y-65.65
X132.2Y-68.15
X132.2Y-70.65
X139.05Y-63.15
X139.05Y-65.65
X139.05Y-68.15
X139.05Y-70.65
X179.725Y-39.9
X179.725Y-42.4
X179.725Y-44.9
X179.725Y-47.4
T4
X120.56Y-76.5
X120.58Y-100.7
X120.6Y-79.04
X120.6Y-81.58
X120.6Y-84.12
X120.6Y-86.66
X120.6Y-89.2
X120.6Y-91.74
X120.6Y-94.28
X120.6Y-96.82
X120.68Y-37.34
X120.68Y-115.38
X120.72Y-39.88
X120.72Y-42.42
X120.72Y-44.96
X120.72Y-47.5
X120.72Y-50.04
X120.72Y-52.58
X120.72Y-55.12
X120.72Y-57.66
X120.72Y-117.92
X120.72Y-120.46
X120.72Y-123.0
X120.72Y-125.54
X120.72Y-128.08
X120.72Y-130.62
X120.72Y-133.16
X120.72Y-135.7
X120.855Y-61.7
X120.855Y-139.7
X123.12Y-100.7
X123.395Y-61.7
X123.395Y-139.7
X135.88Y-76.5
X135.88Y-79.04
X135.88Y-81.58
X135.88Y-84.12
X135.88Y-86.66
X135.88Y-89.2
X135.88Y-91.74
X135.88Y-94.28
X135.88Y-96.82
X136.0Y-37.34
X136.0Y-39.88
X136.0Y-42.42
X136.0Y-44.96
X136.0Y-47.5
X136.0Y-50.04
X136.0Y-52.58
X136.0Y-55.12
X136.0Y-57.66
X136.0Y-115.38
X136.0Y-117.92
X136.0Y-120.46
X136.0Y-123.0
X136.0Y-125.54
X136.0Y-128.08
X136.0Y-130.62
X136.0Y-133.16
X136.0Y-135.7
X148.74Y-37.39
X148.74Y-39.93
X148.74Y-42.47
X148.74Y-45.01
X148.74Y-47.55
X148.74Y-50.09
X148.74Y-52.63
X148.74Y-55.17
X148.74Y-57.71
X148.74Y-60.25
X148.74Y-62.79
X148.74Y-65.33
X148.74Y-67.87
X148.74Y-70.41
X148.74Y-72.95
X148.74Y-75.49
X148.74Y-78.03
X148.74Y-80.57
X148.74Y-83.11
X148.78Y-100.34
X148.78Y-102.88
X148.78Y-105.42
X148.78Y-107.96
X148.78Y-110.5
X148.78Y-113.04
X148.78Y-115.58
X148.78Y-118.12
X171.9Y-37.39
X171.9Y-39.93
X171.9Y-42.47
X171.9Y-45.01
X171.9Y-47.55
X171.9Y-50.09
X171.9Y-52.63
X171.9Y-55.17
X171.9Y-57.71
X171.9Y-60.25
X171.9Y-62.79
X171.9Y-65.33
X171.9Y-67.87
X171.9Y-70.41
X171.9Y-72.95
X171.9Y-75.49
X171.9Y-78.03
X171.9Y-80.57
X171.9Y-83.11
X180.45Y-80.675
X180.45Y-83.215
T5
X110.25Y-37.95
X110.25Y-51.09
X110.25Y-96.43
X110.25Y-109.57
X110.25Y-115.98
X110.25Y-129.12
X110.25Y-135.48
X110.25Y-148.62
X110.267Y-57.43
X110.267Y-70.57
X110.267Y-76.93
X110.267Y-90.07
T4
G00X174.0Y-149.007
M15
G01X174.0Y-147.007
M16
G05
G00X178.0Y-143.308
M15
G01X176.0Y-143.308
M16
G05
G00X180.0Y-149.007
M15
G01X180.0Y-147.007
M16
G05
M30
