M48
; DRILL file {KiCad 8.0.1} date 2024-06-05T21:19:35+0800
; FORMAT={-:-/ absolute / inch / decimal}
; #@! TF.CreationDate,2024-06-05T21:19:35+08:00
; #@! TF.GenerationSoftware,Kicad,Pcbnew,8.0.1
; #@! TF.FileFunction,MixedPlating,1,2
FMAT,2
INCH
; #@! TA.AperFunction,Plated,PTH,ViaDrill
T1C0.0157
; #@! TA.AperFunction,Plated,PTH,ComponentDrill
T2C0.0362
; #@! TA.AperFunction,Plated,PTH,ComponentDrill
T3C0.0374
; #@! TA.AperFunction,Plated,PTH,ComponentDrill
T4C0.0394
; #@! TA.AperFunction,Plated,PTH,ComponentDrill
T5C0.0906
; #@! TA.AperFunction,Plated,PTH,ViaDrill
T6C0.1181
; #@! TA.AperFunction,NonPlated,NPTH,ComponentDrill
T7C0.1220
%
G90
G05
T1
X5.5728Y-3.5551
X5.6033Y-1.8396
X5.6053Y-2.1211
T2
X4.4472Y-1.615
X4.4472Y-1.7134
X4.4472Y-1.7921
X4.4472Y-1.8906
X4.4472Y-3.9173
X4.4472Y-4.0157
X4.4472Y-4.0945
X4.4472Y-4.1929
X4.4472Y-4.687
X4.4472Y-4.7854
X4.4472Y-4.8642
X4.4472Y-4.9626
X4.4472Y-5.4547
X4.4472Y-5.5531
X4.4472Y-5.6319
X4.4472Y-5.7303
X4.4479Y-2.3819
X4.4479Y-2.4803
X4.4479Y-2.5591
X4.4479Y-2.6575
X4.4479Y-3.1496
X4.4479Y-3.248
X4.4479Y-3.3268
X4.4479Y-3.4252
T3
X5.2047Y-2.4862
X5.2047Y-2.5846
X5.2047Y-2.6831
X5.2047Y-2.7815
X5.4744Y-2.4862
X5.4744Y-2.5846
X5.4744Y-2.6831
X5.4744Y-2.7815
X7.0758Y-1.5709
X7.0758Y-1.6693
X7.0758Y-1.7677
X7.0758Y-1.8661
T4
X4.7465Y-3.0118
X4.7472Y-3.9646
X4.748Y-3.1118
X4.748Y-3.2118
X4.748Y-3.3118
X4.748Y-3.4118
X4.748Y-3.5118
X4.748Y-3.6118
X4.748Y-3.7118
X4.748Y-3.8118
X4.7512Y-1.4701
X4.7512Y-4.5425
X4.7528Y-1.5701
X4.7528Y-1.6701
X4.7528Y-1.7701
X4.7528Y-1.8701
X4.7528Y-1.9701
X4.7528Y-2.0701
X4.7528Y-2.1701
X4.7528Y-2.2701
X4.7528Y-4.6425
X4.7528Y-4.7425
X4.7528Y-4.8425
X4.7528Y-4.9425
X4.7528Y-5.0425
X4.7528Y-5.1425
X4.7528Y-5.2425
X4.7528Y-5.3425
X4.7581Y-2.4291
X4.7581Y-5.5
X4.8472Y-3.9646
X4.8581Y-2.4291
X4.8581Y-5.5
X5.3496Y-3.0118
X5.3496Y-3.1118
X5.3496Y-3.2118
X5.3496Y-3.3118
X5.3496Y-3.4118
X5.3496Y-3.5118
X5.3496Y-3.6118
X5.3496Y-3.7118
X5.3496Y-3.8118
X5.3543Y-1.4701
X5.3543Y-1.5701
X5.3543Y-1.6701
X5.3543Y-1.7701
X5.3543Y-1.8701
X5.3543Y-1.9701
X5.3543Y-2.0701
X5.3543Y-2.1701
X5.3543Y-2.2701
X5.3543Y-4.5425
X5.3543Y-4.6425
X5.3543Y-4.7425
X5.3543Y-4.8425
X5.3543Y-4.9425
X5.3543Y-5.0425
X5.3543Y-5.1425
X5.3543Y-5.2425
X5.3543Y-5.3425
X5.8559Y-1.472
X5.8559Y-1.572
X5.8559Y-1.672
X5.8559Y-1.772
X5.8559Y-1.872
X5.8559Y-1.972
X5.8559Y-2.072
X5.8559Y-2.172
X5.8559Y-2.272
X5.8559Y-2.372
X5.8559Y-2.472
X5.8559Y-2.572
X5.8559Y-2.672
X5.8559Y-2.772
X5.8559Y-2.872
X5.8559Y-2.972
X5.8559Y-3.072
X5.8559Y-3.172
X5.8559Y-3.272
X5.8575Y-3.9504
X5.8575Y-4.0504
X5.8575Y-4.1504
X5.8575Y-4.2504
X5.8575Y-4.3504
X5.8575Y-4.4504
X5.8575Y-4.5504
X5.8575Y-4.6504
X6.7677Y-1.472
X6.7677Y-1.572
X6.7677Y-1.672
X6.7677Y-1.772
X6.7677Y-1.872
X6.7677Y-1.972
X6.7677Y-2.072
X6.7677Y-2.172
X6.7677Y-2.272
X6.7677Y-2.372
X6.7677Y-2.472
X6.7677Y-2.572
X6.7677Y-2.672
X6.7677Y-2.772
X6.7677Y-2.872
X6.7677Y-2.972
X6.7677Y-3.072
X6.7677Y-3.172
X6.7677Y-3.272
X7.1043Y-3.1762
X7.1043Y-3.2762
T5
X4.3406Y-1.4941
X4.3406Y-2.0114
X4.3406Y-3.7965
X4.3406Y-4.3138
X4.3406Y-4.5661
X4.3406Y-5.0835
X4.3406Y-5.3339
X4.3406Y-5.8512
X4.3412Y-2.261
X4.3412Y-2.7783
X4.3412Y-3.0287
X4.3412Y-3.5461
T6
X5.0768Y-1.7146
X5.0768Y-5.6476
X6.4488Y-3.6791
T7
X5.9142Y-3.7402
X5.9142Y-4.8346
X7.115Y-3.7402
T4
G00X6.7686Y-5.6575
M15
G01X6.8473Y-5.6575
M16
G05
G00X6.7686Y-5.8937
M15
G01X6.8473Y-5.8937
M16
G05
G00X6.993Y-5.815
M15
G01X6.993Y-5.7362
M16
G05
M30
